<svg width="48" height="30" viewBox="0 0 48 30" fill="none" xmlns="http://www.w3.org/2000/svg">
<path fill-rule="evenodd" clip-rule="evenodd" d="M3.46113 0.243286C1.55417 0.243286 -0.000732422 1.79817 -0.000732422 3.70513V22.628C-0.000732422 24.535 1.55417 26.0899 3.46113 26.0899H6.83495C7.42171 28.1435 9.29935 29.6691 11.529 29.6691C13.7587 29.6691 15.6363 28.1435 16.2231 26.0899H35.2926C35.8794 28.1435 37.757 29.6691 39.9867 29.6691C42.2163 29.6691 44.0939 28.1435 44.6807 26.0899H45.1208C46.6757 26.0899 47.9665 24.799 47.9665 23.2441V16.3497C47.9959 16.203 47.9665 16.027 47.9372 15.8803C47.9372 15.851 47.9372 15.851 47.9079 15.8217C47.8492 15.675 47.7905 15.5576 47.6732 15.4402L41.8349 7.37235C41.6296 7.07897 41.3069 6.9323 40.9548 6.9323H33.8844V3.73445C33.8844 1.82749 32.3295 0.272608 30.4225 0.272608L3.46113 0.243286ZM3.46113 2.44362H30.4812C31.1853 2.44362 31.7721 3.001 31.7721 3.73445V23.9482H16.3697C15.959 21.6598 13.964 19.9289 11.5583 19.9289C9.18198 19.9289 7.15767 21.6598 6.74694 23.9482H3.46113C2.75702 23.9482 2.17026 23.3908 2.17026 22.6574V3.73445C2.17026 3.001 2.72768 2.44362 3.46113 2.44362ZM33.9137 9.10327H40.4267L45.7956 16.5551V23.2734C45.7956 23.6548 45.5022 23.9482 45.1208 23.9482H44.7981C44.3873 21.6598 42.3924 19.9289 39.9867 19.9289C37.581 19.9289 35.586 21.6598 35.1753 23.9482H33.9137V9.10327ZM11.529 22.0999C13.0252 22.0999 14.2281 23.3028 14.2281 24.799V24.8577C14.1988 26.3246 13.0252 27.4981 11.529 27.4981C10.0328 27.4981 8.82992 26.2952 8.82992 24.799C8.82992 23.3028 10.0328 22.0999 11.529 22.0999ZM40.016 22.0999C41.5122 22.0999 42.7151 23.3028 42.7151 24.799C42.7151 26.2952 41.5122 27.4981 40.016 27.4981C38.5198 27.4981 37.3169 26.2952 37.3169 24.799C37.3169 23.3028 38.4904 22.0999 40.016 22.0999Z" fill="#E30613"/>
<path fill-rule="evenodd" clip-rule="evenodd" d="M17.7193 7.90027C17.1032 7.90027 16.6338 8.36966 16.6045 8.98575C16.6045 9.60185 17.0739 10.0713 17.69 10.1006H17.7193H28.4276C29.0437 10.1006 29.5131 9.63117 29.5425 9.01507C29.5718 8.39898 29.0731 7.92961 28.457 7.90027H28.4276H17.7193Z" fill="#E30613"/>
<path fill-rule="evenodd" clip-rule="evenodd" d="M12.8197 12.8C12.2036 12.8 11.7342 13.2694 11.7048 13.8855C11.6755 14.5016 12.1743 14.971 12.7904 15.0004H12.8197H28.4274C29.0435 15.0004 29.5129 14.5309 29.5422 13.9149C29.5422 13.2988 29.0728 12.8294 28.4567 12.8H28.4274H12.8197Z" fill="#E30613"/>
</svg>
