<svg width="46" height="34" viewBox="0 0 46 34" fill="none" xmlns="http://www.w3.org/2000/svg">
<path d="M45.0427 14.1146H40.2505C39.7213 14.1146 39.2932 14.5434 39.2932 15.0727C39.2932 15.6019 39.7214 16.0307 40.2505 16.0307H45.0427C45.5719 16.0307 46 15.6019 46 15.0727C46 14.5435 45.5719 14.1146 45.0427 14.1146Z" fill="#E30613"/>
<path d="M40.2503 12.1979C40.3766 12.1979 40.4959 12.1734 40.6069 12.1291L40.6223 12.1235C40.6223 12.1228 40.6238 12.1228 40.6251 12.1221L45.3977 10.2131V10.2124C45.7515 10.0713 45.9999 9.72674 45.9999 9.3232C45.9999 8.79398 45.5717 8.36511 45.0426 8.36511C44.9163 8.36511 44.797 8.38964 44.686 8.43393V8.43321L44.6706 8.44021C44.6691 8.44021 44.6691 8.44021 44.6691 8.44021L39.8951 10.3499V10.3506C39.5428 10.4917 39.293 10.8363 39.293 11.2398C39.2931 11.769 39.7211 12.1979 40.2503 12.1979Z" fill="#E30613"/>
<path d="M35.4596 10.0041V1.65697C35.4596 1.12776 35.0301 0.698975 34.5009 0.698975C33.9731 0.698975 33.5436 1.12776 33.5436 1.65697V2.23254L16.2951 7.40649H5.75333C5.22555 7.40649 4.79605 7.83608 4.79605 8.3652V10.2813H1.92134C1.39212 10.2813 0.962623 10.7108 0.962623 11.24V13.156C0.433406 13.156 0.00390625 13.5856 0.00390625 14.1147V16.0308C0.00390625 16.56 0.433406 16.9895 0.962623 16.9895V18.9062C0.962623 19.4355 1.39212 19.8635 1.92134 19.8635H4.79605V21.781C4.79605 22.3103 5.22555 22.7383 5.75333 22.7383H7.1093L9.58685 33.3011H18.2111L15.8206 26.4384C16.1041 26.2728 16.295 25.9668 16.295 25.613C16.295 25.2789 16.1238 24.9842 15.8627 24.813L16.7947 22.8884L33.5435 27.9136V28.4877C33.5435 29.0183 33.973 29.4465 34.5008 29.4465C35.03 29.4465 35.4595 29.0183 35.4595 28.4877V19.9617C37.1777 18.968 38.3343 17.1109 38.3343 14.9829C38.3344 12.8549 37.1778 10.9979 35.4596 10.0041ZM2.87862 17.9475V12.198H4.79605V17.9475H2.87862ZM6.71205 9.32329H16.295V20.8222H6.71205V9.32329ZM11.107 31.385L9.07874 22.7383H14.737L13.7853 24.7091L13.4385 25.425L13.6997 26.1746L15.5146 31.385H11.107ZM18.2111 21.3121V19.9604L18.2293 19.9252H18.2111V8.83261L33.5435 4.23343V25.9134L18.2111 21.3121ZM35.4596 17.5138V12.4513C36.0563 13.1272 36.4184 14.0129 36.4184 14.983C36.4184 15.9522 36.0562 16.8386 35.4596 17.5138Z" fill="#E30613"/>
<path d="M45.3978 19.9337L40.6253 18.0232C40.6238 18.0225 40.6225 18.0225 40.6225 18.0218L40.607 18.0162V18.017C40.4962 17.9728 40.3769 17.9475 40.2505 17.9475C39.7213 17.9475 39.2932 18.3763 39.2932 18.9062C39.2932 19.309 39.543 19.6529 39.8954 19.7961L44.6679 21.7052C44.6694 21.7052 44.6707 21.7052 44.6722 21.7066L44.6862 21.7122V21.7108C44.797 21.7557 44.9163 21.7809 45.0427 21.7809C45.5719 21.7809 46 21.3513 46 20.8221C46 20.4193 45.7515 20.0741 45.3978 19.9337Z" fill="#E30613"/>
</svg>
