<svg width="44" height="43" viewBox="0 0 44 43" fill="none" xmlns="http://www.w3.org/2000/svg">
<path d="M24.0245 24.4354C17.5115 24.4354 12.2307 19.1546 12.2307 12.6416C12.2307 6.12858 17.5115 0.847778 24.0245 0.847778C30.5375 0.847778 35.8183 6.12858 35.8183 12.6416C35.8183 19.1252 30.5375 24.406 24.0245 24.4354ZM24.0245 2.52004C18.4503 2.52004 13.9323 7.03806 13.9323 12.6122C13.9323 18.1864 18.4503 22.7044 24.0245 22.7044C29.5987 22.7044 34.1167 18.1864 34.1167 12.6122C34.1167 7.03806 29.5987 2.52004 24.0245 2.52004Z" fill="#E30613"/>
<path d="M42.6539 27.5158C41.6564 26.313 39.9842 25.9903 38.6053 26.753L37.6665 25.6089C36.8157 24.6114 35.3781 24.406 34.2927 25.1101L33.3832 25.7262L32.8258 25.0808C31.975 24.0833 30.5374 23.8779 29.4519 24.582L23.2323 28.6307L16.3086 25.7849C14.1376 24.9048 11.6439 25.2568 9.79558 26.7237L0.964924 33.7354C0.583532 33.9995 0.49552 34.5276 0.75956 34.909C1.0236 35.2903 1.55166 35.3784 1.93305 35.1143C1.96239 35.085 1.99175 35.085 2.02109 35.0556L10.8517 28.0439C12.2306 26.9584 14.0789 26.6944 15.6925 27.3691L27.9263 32.3859C28.7185 32.738 29.0705 33.6768 28.7185 34.4689C28.3958 35.2317 27.5156 35.5837 26.7528 35.3197L18.4796 32.0925C18.0395 31.8872 17.5408 32.0925 17.3647 32.5033C17.1594 32.9433 17.3647 33.4421 17.7755 33.6181C17.8048 33.6181 17.8341 33.6474 17.8635 33.6474L26.1074 36.9039C26.4888 37.0506 26.8995 37.1386 27.3102 37.1386C29.0705 37.1386 30.5081 35.7597 30.5961 33.9995L30.6841 33.9408L39.3094 28.308C40.0429 27.8385 41.011 28.0733 41.4511 28.8067C41.8911 29.5108 41.7151 30.3909 41.0403 30.8897L29.3639 39.1629C27.8677 40.2191 25.9607 40.5712 24.2004 40.0431L14.3429 37.256C12.524 36.7572 10.5877 37.1386 9.12082 38.3415L6.48042 40.5125C6.12837 40.8059 6.06969 41.3633 6.39241 41.7153C6.5391 41.8914 6.7738 42.0087 7.03784 42.0087C7.24321 42.0087 7.41924 41.95 7.56593 41.8327L10.2357 39.691C11.2625 38.8402 12.6414 38.5762 13.9029 38.9282L23.731 41.686C25.99 42.3314 28.4251 41.8914 30.332 40.5418L42.0378 32.2685C43.5047 31.2417 43.8568 29.1881 42.8299 27.7212C42.7419 27.6625 42.7126 27.6038 42.6539 27.5158ZM30.332 25.9903C30.7134 25.7556 31.2122 25.8142 31.4762 26.1663L31.887 26.665L26.7235 30.0682L25.1393 29.3934L30.332 25.9903ZM30.156 32.2392C29.804 31.6231 29.2759 31.1537 28.6598 30.8603L35.2315 26.5477C35.6129 26.313 36.1116 26.3717 36.3756 26.7237L37.1677 27.6919L30.156 32.2392Z" fill="#E30613"/>
<path d="M24.1124 8.94502C24.9339 8.97435 25.7553 9.09171 26.5768 9.29707C27.0169 9.41442 27.4863 9.15038 27.6329 8.71031C27.7503 8.27025 27.4863 7.80085 27.0462 7.65416C26.3714 7.47813 25.6673 7.36078 24.9925 7.3021V6.15793C24.9925 5.68852 24.6112 5.30713 24.1418 5.30713C23.6724 5.30713 23.291 5.68852 23.291 6.15793V7.33144C21.0026 7.65416 20.7386 9.20906 20.7386 9.91316C20.7386 11.6734 22.5575 12.4069 23.643 12.8763L23.8484 12.9643L24.1711 13.0817C25.2859 13.5217 25.7553 13.7858 25.7553 14.5779C25.7553 15.37 25.2273 15.7514 24.2004 15.8101H24.1418H24.0244C23.0563 15.7221 22.0881 15.4873 21.1786 15.1353C20.7386 14.9593 20.2398 15.1353 20.0638 15.5754C19.8878 16.0154 20.0638 16.5142 20.5039 16.6902C20.5332 16.6902 20.5626 16.7195 20.5626 16.7195C21.4427 17.0422 22.3522 17.3063 23.291 17.453V18.5972C23.291 19.0666 23.6724 19.448 24.1418 19.448C24.6112 19.448 24.9925 19.0666 24.9925 18.5972V17.4236C26.5474 17.1303 27.4569 16.1034 27.4569 14.5779C27.4569 12.5829 25.7847 11.9081 24.8165 11.5267L24.3178 11.3214C23.5257 10.9987 22.4695 10.5586 22.4695 9.9425C22.4108 9.59045 22.4108 8.94502 24.1124 8.94502Z" fill="#E30613"/>
</svg>
