<svg width="44" height="34" viewBox="0 0 44 34" fill="none" xmlns="http://www.w3.org/2000/svg">
<path d="M35.6418 20.6963H27.0752V22.8966H35.6418V20.6963Z" fill="#E30613"/>
<path d="M37.3141 16.6179H27.0752V18.8183H37.3141V16.6179Z" fill="#E30613"/>
<path d="M31.3585 24.6272H27.0752V26.8275H31.3585V24.6272Z" fill="#E30613"/>
<path d="M28.5714 7.46464C29.3977 7.46464 30.0676 6.79475 30.0676 5.9684C30.0676 5.14206 29.3977 4.47217 28.5714 4.47217C27.7451 4.47217 27.0752 5.14206 27.0752 5.9684C27.0752 6.79475 27.7451 7.46464 28.5714 7.46464Z" fill="#E30613"/>
<path d="M33.2072 7.46464C34.0335 7.46464 34.7034 6.79475 34.7034 5.9684C34.7034 5.14206 34.0335 4.47217 33.2072 4.47217C32.3808 4.47217 31.7109 5.14206 31.7109 5.9684C31.7109 6.79475 32.3808 7.46464 33.2072 7.46464Z" fill="#E30613"/>
<path d="M38.1063 7.46464C38.9327 7.46464 39.6026 6.79475 39.6026 5.9684C39.6026 5.14206 38.9327 4.47217 38.1063 4.47217C37.28 4.47217 36.6101 5.14206 36.6101 5.9684C36.6101 6.79475 37.28 7.46464 38.1063 7.46464Z" fill="#E30613"/>
<path d="M39.1921 2.36008C40.7763 2.36008 42.0378 3.65095 42.0378 5.20585V29.0575C42.0378 30.6417 40.747 31.9032 39.1921 31.9032H4.86684C3.28259 31.9032 2.02109 30.6124 2.02109 29.0575V5.20585C2.02109 3.62161 3.31193 2.36008 4.86684 2.36008H39.1921ZM39.1921 0.893188H4.86684C2.49047 0.893188 0.554199 2.82949 0.554199 5.20585V29.0575C0.554199 31.4338 2.49047 33.3701 4.86684 33.3701H39.1921C41.5684 33.3701 43.5047 31.4338 43.5047 29.0575V5.20585C43.5047 2.82949 41.5684 0.893188 39.1921 0.893188Z" fill="#E30613"/>
<path d="M43.5045 8.90222H0.524658V10.5745H43.5045V8.90222Z" fill="#E30613"/>
<path d="M14.5186 28.6468C18.4235 28.6468 21.5891 25.4813 21.5891 21.5764C21.5891 17.6715 18.4235 14.506 14.5186 14.506C10.6138 14.506 7.44824 17.6715 7.44824 21.5764C7.44824 25.4813 10.6138 28.6468 14.5186 28.6468Z" fill="#E30613"/>
</svg>
