<svg width="36" height="40" viewBox="0 0 36 40" fill="none" xmlns="http://www.w3.org/2000/svg">
<path d="M29.4391 37.1625H3.03513V5.65368H25.7719V3.48267H2.56573C1.62692 3.48267 0.864136 4.24545 0.864136 5.18426V37.6319C0.864136 38.6 1.62692 39.3335 2.56573 39.3335H29.9379C30.8767 39.3335 31.6395 38.5707 31.6395 37.6319V24.4299C30.8767 24.4299 30.0846 24.1952 29.4391 23.6964V37.1625Z" fill="#E30613"/>
<path d="M35.5414 2.42662C35.5414 1.98656 35.3654 1.51716 35.0133 1.19444C34.6319 0.871725 34.2506 0.666382 33.7811 0.666382H29.4978C29.0578 0.666382 28.5883 0.842387 28.2656 1.19444C27.9429 1.51716 27.7375 1.95722 27.7375 2.42662V18.2984C27.7375 18.7091 27.9136 19.1492 28.1776 19.4426L30.3486 21.8776C30.6713 22.2297 31.1701 22.4937 31.6395 22.4937C32.0795 22.4937 32.5489 22.2883 32.8717 21.9656C32.901 21.9363 32.901 21.9363 32.9597 21.8776L35.1307 19.4426C35.4241 19.1198 35.5708 18.7091 35.5708 18.2984L35.5414 2.42662ZM33.3411 2.89604V4.80298H29.9086V2.89604H33.3411ZM33.3411 6.94467V14.8952H29.9086V6.94467H33.3411ZM31.6395 20.0587L29.9379 18.093V17.0662H33.3704V18.1224L31.6395 20.0587Z" fill="#E30613"/>
<path d="M24.0998 10.4945H13.6848C13.0688 10.4945 12.5994 10.9933 12.5994 11.58C12.5994 12.1961 13.0981 12.6655 13.6848 12.6655H24.0998C24.7159 12.6655 25.1853 12.1668 25.1853 11.58C25.2146 10.9933 24.7159 10.4945 24.0998 10.4945Z" fill="#E30613"/>
<path d="M24.0998 17.0663H13.6848C13.0688 17.0663 12.5994 17.565 12.5994 18.1518C12.5994 18.7679 13.0981 19.2373 13.6848 19.2373H24.0998C24.7159 19.2373 25.1853 18.7385 25.1853 18.1518C25.2146 17.5357 24.7159 17.0663 24.0998 17.0663Z" fill="#E30613"/>
<path d="M24.0998 23.6085H13.6848C13.0688 23.6085 12.5994 24.1072 12.5994 24.694C12.5994 25.2808 13.0981 25.7795 13.6848 25.7795H24.0998C24.7159 25.7795 25.1853 25.2808 25.1853 24.694C25.1853 24.1072 24.7159 23.6085 24.0998 23.6085Z" fill="#E30613"/>
<path d="M24.0998 30.1798H13.6848C13.0688 30.1798 12.5994 30.6785 12.5994 31.2653C12.5994 31.8814 13.0981 32.3508 13.6848 32.3508H24.0998C24.7159 32.3508 25.1853 31.852 25.1853 31.2653C25.2146 30.6492 24.7159 30.1798 24.0998 30.1798Z" fill="#E30613"/>
<path d="M9.3136 10.4945H8.37479C7.7587 10.4945 7.28931 10.9933 7.28931 11.58C7.28931 12.1961 7.78803 12.6655 8.37479 12.6655H9.3136C9.92969 12.6655 10.3991 12.1668 10.3991 11.58C10.4284 10.9933 9.92969 10.4945 9.3136 10.4945Z" fill="#E30613"/>
<path d="M9.3136 17.0663H8.37479C7.7587 17.0663 7.28931 17.565 7.28931 18.1518C7.28931 18.7679 7.78803 19.2373 8.37479 19.2373H9.3136C9.92969 19.2373 10.3991 18.7385 10.3991 18.1518C10.4284 17.5357 9.92969 17.0663 9.3136 17.0663Z" fill="#E30613"/>
<path d="M9.3136 23.6085H8.37479C7.7587 23.6085 7.28931 24.1072 7.28931 24.694C7.28931 25.2808 7.78803 25.7795 8.37479 25.7795H9.3136C9.92969 25.7795 10.3991 25.2808 10.3991 24.694C10.3991 24.1072 9.92969 23.6085 9.3136 23.6085Z" fill="#E30613"/>
<path d="M9.3136 30.1798H8.37479C7.7587 30.1798 7.28931 30.6785 7.28931 31.2653C7.28931 31.8814 7.78803 32.3508 8.37479 32.3508H9.3136C9.92969 32.3508 10.3991 31.852 10.3991 31.2653C10.4284 30.6492 9.92969 30.1798 9.3136 30.1798Z" fill="#E30613"/>
</svg>
