<svg width="42" height="33" viewBox="0 0 42 33" fill="none" xmlns="http://www.w3.org/2000/svg">
<path d="M31.591 29.114C30.5935 29.114 29.6547 28.6152 29.1266 28.0578C28.7745 27.7058 28.7745 27.119 29.1266 26.7376C29.4786 26.3856 30.0654 26.3856 30.4468 26.7376C30.4468 26.7376 30.7695 27.0603 31.2389 27.1777C31.5616 27.2657 32.0604 27.3244 32.6765 26.7376C33.2926 26.1215 33.2339 25.6228 33.1165 25.3001C32.9698 24.86 32.6765 24.5079 32.6471 24.5079C32.2951 24.1559 32.2951 23.5691 32.6471 23.1877C32.9992 22.8357 33.5859 22.8357 33.9673 23.1877C34.9355 24.1559 35.7276 26.2389 33.9673 28.0285C33.2045 28.8206 32.3831 29.114 31.591 29.114Z" fill="#E30613"/>
<path d="M26.3393 30.8742C25.3418 30.8742 24.403 30.3755 23.8749 29.8181C23.5228 29.466 23.5228 28.8793 23.8749 28.4979C24.2269 28.1458 24.8137 28.1458 25.1951 28.4979C25.1951 28.4979 25.5178 28.8206 25.9872 28.9379C26.3099 29.026 26.8087 29.0846 27.4248 28.4979C28.0408 27.8818 27.9822 27.383 27.8648 27.0603C27.7181 26.6203 27.4247 26.2682 27.3954 26.2682C27.0434 25.9162 27.0434 25.3294 27.3954 24.948C27.7475 24.5959 28.3342 24.5959 28.7156 24.948C29.6838 25.9161 30.4759 27.9991 28.7156 29.7887C27.9235 30.5809 27.102 30.8742 26.3393 30.8742Z" fill="#E30613"/>
<path d="M21.088 32.5755C20.0905 32.5755 19.181 32.1061 18.5942 31.578L18.5649 31.5487L16.8046 29.7884C16.4526 29.4364 16.4526 28.8496 16.8046 28.4682C16.8046 28.4682 17.1274 28.1455 17.2447 27.6761C17.3327 27.3534 17.3914 26.8547 16.8046 26.2386C16.1886 25.6225 15.6898 25.6811 15.3671 25.7985C14.927 25.9452 14.575 26.2386 14.575 26.2679C14.2229 26.62 13.6362 26.62 13.2548 26.2679C12.9027 25.9159 12.9027 25.3291 13.2548 24.9477C14.2229 23.9795 16.3059 23.1874 18.0955 24.9477C19.5037 26.3559 19.2984 27.9401 18.6529 29.0256L19.8264 30.1992C19.8851 30.2578 20.2078 30.5219 20.6479 30.6392C21.176 30.7859 21.616 30.6686 22.0561 30.2285C22.4962 29.7884 22.6429 29.319 22.4668 28.7616C22.3202 28.3215 22.0268 27.9695 22.0268 27.9695C21.6747 27.5881 21.7041 27.0013 22.0854 26.6493C22.4668 26.2972 23.0536 26.3266 23.4057 26.708C24.3151 27.7054 25.0779 29.8178 23.3763 31.5194C22.6722 32.3115 21.8507 32.5755 21.088 32.5755Z" fill="#E30613"/>
<path d="M15.6311 30.8743C14.8684 30.8743 14.0469 30.5809 13.2841 29.8182C12.316 28.85 11.9933 27.6472 12.404 26.4443C12.6974 25.5935 13.2254 25.0361 13.2841 24.9774C13.6362 24.6254 14.2229 24.6254 14.6043 24.9774C14.9564 25.3295 14.9564 25.9162 14.6043 26.2976C14.6043 26.2976 14.2816 26.6203 14.1642 27.0897C14.0762 27.4125 14.0176 27.9112 14.6043 28.5273C15.2204 29.1434 15.7191 29.0847 16.0419 28.9674C16.4819 28.8207 16.834 28.5273 16.834 28.4979C17.186 28.1459 17.7728 28.1459 18.1542 28.4979C18.5356 28.85 18.5062 29.4368 18.1542 29.8182C17.5674 30.3756 16.658 30.8743 15.6311 30.8743Z" fill="#E30613"/>
<path d="M35.1115 25.5933C34.114 25.5933 33.1752 25.0946 32.6471 24.5372C32.295 24.1851 32.295 23.5984 32.6471 23.217C32.9991 22.8649 33.5859 22.8649 33.9379 23.217C33.9673 23.2463 34.29 23.5397 34.7301 23.6864C35.0528 23.7744 35.5515 23.8331 36.1676 23.2463C36.7837 22.6302 36.725 22.1315 36.6077 21.8088C36.461 21.3687 36.1676 21.0167 36.1383 21.0167L34.4074 19.2857L34.378 19.2564L25.87 10.7484H19.5917L18.0955 12.2446C16.2766 14.0636 14.6337 14.797 13.0788 14.4743C11.6999 14.2103 10.7024 13.2128 9.73426 12.2446C9.55823 12.0686 9.47021 11.8339 9.47021 11.5992C9.47021 11.3645 9.55823 11.1298 9.73426 10.9538C9.76359 10.9244 11.5532 9.16418 15.0151 5.70231C18.3889 2.32847 25.694 3.26727 27.6596 3.58999L30.8281 0.4215C31.0042 0.245473 31.2389 0.157471 31.4736 0.157471C31.7083 0.157471 31.943 0.245473 32.119 0.4215L40.9203 9.22284C41.2724 9.5749 41.2724 10.1617 40.9203 10.5431L37.6345 13.8289L36.1383 18.3469L37.4878 19.6964C37.5465 19.7551 38.1039 20.3125 38.368 21.1633C38.7787 22.3662 38.456 23.569 37.4878 24.5372C36.725 25.3 35.9036 25.5933 35.1115 25.5933ZM19.2397 8.8708H26.2808C26.5155 8.8708 26.7502 8.95881 26.9262 9.13483L34.6714 16.88L35.9623 13.0368C36.0209 12.8901 36.0796 12.7727 36.1969 12.6847L39.0721 9.80961L31.5322 2.32846L28.6571 5.20358C28.4518 5.40894 28.1291 5.52628 27.8357 5.46761C27.7477 5.43827 19.5037 3.85402 16.3646 6.99316C14.1056 9.25217 12.5507 10.8071 11.7292 11.5992C12.2866 12.1273 12.8734 12.5674 13.4601 12.6847C14.3696 12.8607 15.4551 12.3033 16.8047 10.9538L18.5649 9.1935C18.741 8.98813 18.9757 8.8708 19.2397 8.8708Z" fill="#E30613"/>
<path d="M6.85917 25.5933C6.09638 25.5933 5.27493 25.2999 4.51215 24.5371C2.75188 22.7768 3.544 20.6645 4.51215 19.6964L8.03268 16.1758C9.00083 15.2077 11.0838 14.4156 12.8734 16.1758C14.6337 17.9361 13.8416 20.0484 12.8734 21.0166C12.5214 21.3686 11.9346 21.3686 11.5532 21.0166C11.2012 20.6645 11.2012 20.0778 11.5532 19.6964C11.5532 19.6964 11.8759 19.3737 11.9933 18.9043C12.0813 18.5815 12.14 18.0828 11.5532 17.4667C10.9371 16.8506 10.4384 16.9093 10.1157 17.0266C9.6756 17.1733 9.32354 17.4667 9.32354 17.496L5.80302 21.0166C5.80302 21.0166 5.4803 21.3393 5.36294 21.8087C5.27493 22.1314 5.21626 22.6301 5.80302 23.2462C6.41911 23.8623 6.91785 23.8037 7.24056 23.6863C7.68063 23.5396 8.03268 23.2463 8.03268 23.2169C8.38474 22.8649 8.9715 22.8649 9.35289 23.2169C9.73428 23.569 9.70494 24.1557 9.35289 24.5371C8.76613 25.0945 7.85665 25.5933 6.85917 25.5933Z" fill="#E30613"/>
<path d="M10.3504 29.1135C9.49959 29.1135 8.67813 28.7614 8.00336 28.0573C7.03521 27.0892 6.71249 25.8863 7.12322 24.6835C7.4166 23.8327 7.94468 23.2753 8.00336 23.2166L11.5239 19.6961C11.6412 19.5787 12.6094 18.6399 14.0176 18.6399C14.8684 18.6399 15.6899 18.9919 16.3646 19.6961C18.1249 21.4563 17.3328 23.5686 16.3646 24.5368L12.8441 28.0573C12.7267 28.1747 11.7586 29.1135 10.3504 29.1135ZM9.32355 24.5368C9.32355 24.5368 9.00084 24.8595 8.88349 25.3289C8.79548 25.6516 8.7368 26.1504 9.32355 26.7665C9.67561 27.1185 9.99833 27.2652 10.3504 27.2652C10.9665 27.2652 11.5239 26.7665 11.5239 26.7665L15.0444 23.2459C15.0444 23.2459 15.3671 22.9232 15.4845 22.4538C15.5725 22.1311 15.6312 21.6324 15.0444 21.0163C14.6924 20.6642 14.3697 20.5175 14.0176 20.5175C13.4015 20.5175 12.8441 21.0163 12.8441 21.0163L9.32355 24.5368Z" fill="#E30613"/>
<path d="M24.4913 30.0822C24.2566 30.0822 24.0219 29.9942 23.8459 29.8182L20.3253 26.2976C19.9733 25.9456 19.9733 25.3588 20.3253 24.9774C20.6774 24.6254 21.2641 24.6254 21.6455 24.9774L25.1661 28.4979C25.5181 28.85 25.5181 29.4368 25.1661 29.8182C24.99 29.9942 24.7553 30.0822 24.4913 30.0822Z" fill="#E30613"/>
<path d="M29.7721 28.322C29.5374 28.322 29.3027 28.2339 29.1266 28.0579L23.8458 22.7771C23.4938 22.4251 23.4938 21.8383 23.8458 21.4569C24.1979 21.1049 24.7846 21.1049 25.166 21.4569L30.4468 26.7377C30.7989 27.0898 30.7989 27.6765 30.4468 28.0579C30.2708 28.2339 30.0068 28.322 29.7721 28.322Z" fill="#E30613"/>
<path d="M33.2926 24.8015C33.0579 24.8015 32.8232 24.7134 32.6471 24.5374L27.3663 19.2566C27.0143 18.9045 27.0143 18.3178 27.3663 17.9364C27.7184 17.5843 28.3051 17.5843 28.6865 17.9364L33.9673 23.2172C34.3194 23.5693 34.3194 24.156 33.9673 24.5374C33.7913 24.7134 33.5273 24.8015 33.2926 24.8015Z" fill="#E30613"/>
<path d="M6.91785 19.5204C6.53646 19.5204 6.15507 19.2857 6.03772 18.875L4.33613 13.7996L0.962283 10.4257C0.786256 10.2497 0.698242 10.015 0.698242 9.78028C0.698242 9.54557 0.786256 9.31087 0.962283 9.13484L9.76362 0.333498C10.1157 -0.0185554 10.7024 -0.0185554 11.0838 0.333498L14.2523 3.50199C15.3671 3.32596 18.1836 2.94456 21.0293 3.23794C21.5281 3.29661 21.9095 3.7367 21.8508 4.26478C21.7921 4.76352 21.3521 5.14491 20.824 5.08623C17.5088 4.73418 14.135 5.40895 14.1056 5.40895C13.8122 5.46762 13.4895 5.3796 13.2548 5.1449L10.3797 2.2698L2.86924 9.75093L5.74435 12.626C5.83236 12.7141 5.92037 12.8607 5.97904 12.9781L7.73932 18.2589C7.91535 18.7576 7.6513 19.2564 7.15256 19.4324C7.09389 19.5204 7.00587 19.5204 6.91785 19.5204Z" fill="#E30613"/>
</svg>
