<svg width="47" height="47" viewBox="0 0 47 47" fill="none" xmlns="http://www.w3.org/2000/svg">
<path d="M42.7417 23.4571C43.15 23.3987 43.5584 23.6612 43.6167 24.0695L46.2709 39.0612C46.3584 39.4696 46.0667 39.8779 45.6584 39.9362L40.3792 40.8696C39.9709 40.9279 39.5625 40.6654 39.5042 40.2571L36.85 25.2654C36.7625 24.8571 37.0542 24.4488 37.4625 24.3904L42.7417 23.4571ZM42.2459 25.0904L38.4542 25.7613L40.8459 39.2653L44.6375 38.5946L42.2459 25.0904Z" fill="#E30613"/>
<path fill-rule="evenodd" clip-rule="evenodd" d="M43.2666 26.4611L43.5291 27.9486L38.2499 28.8819L37.9874 27.3944L43.2666 26.4611Z" fill="#E30613"/>
<path d="M19.525 23.4571C19.1166 23.3987 18.7083 23.6612 18.65 24.0695L15.9958 39.0612C15.9083 39.4696 16.2 39.8779 16.6083 39.9362L21.8875 40.8696C22.2958 40.9279 22.7041 40.6654 22.7625 40.2571L25.4166 25.2654C25.475 24.8571 25.2125 24.4488 24.8041 24.3904L19.525 23.4571ZM20.0208 25.0904L23.8125 25.7613L21.4208 39.2653L17.6291 38.5946L20.0208 25.0904Z" fill="#E30613"/>
<path fill-rule="evenodd" clip-rule="evenodd" d="M19 26.4611L18.7375 27.9486L24.0167 28.8819L24.2792 27.3944L19 26.4611Z" fill="#E30613"/>
<path d="M31.1625 19.2861C27.6333 19.2569 24.3958 21.2985 22.8791 24.5068C22.7041 24.886 22.85 25.3235 23.2291 25.5277C23.6083 25.7319 24.0458 25.5569 24.25 25.1777C25.5041 22.4944 28.1875 20.8027 31.1625 20.8319C34.1083 20.8611 36.7916 22.5819 38.0166 25.2652C38.1916 25.6444 38.6291 25.8194 39.0083 25.6444C39.3875 25.4694 39.5625 25.0319 39.3875 24.6527C37.9291 21.3861 34.7208 19.3152 31.1625 19.2861Z" fill="#E30613"/>
<path d="M32.6499 0.327881C32.2416 0.327881 31.8916 0.67782 31.8916 1.08615V4.11951C31.8916 4.52785 32.2416 4.87787 32.6499 4.87787C33.2916 4.87787 33.7874 5.37366 33.7874 6.01533C33.7874 6.65699 33.2916 7.15287 32.6499 7.15287C32.2416 7.15287 31.8916 7.50281 31.8916 7.91114V10.1862C31.8916 10.5946 32.2416 10.9445 32.6499 10.9445C33.2916 10.9445 33.7874 11.4404 33.7874 12.082C33.7874 12.7237 33.2916 13.2195 32.6499 13.2195H31.1332C29.0624 13.2195 27.3416 14.9112 27.3416 17.0112C27.3416 19.0821 29.0332 20.8028 31.1332 20.8028C31.5416 20.8028 31.8916 20.482 31.8916 20.0445C31.8916 19.6362 31.5707 19.2862 31.1332 19.2862C31.1332 19.2862 31.1332 19.2862 31.1041 19.2862C29.8499 19.2862 28.8291 18.2654 28.8291 17.0112C28.8291 15.7571 29.8499 14.7362 31.1041 14.7362H32.6207C34.0791 14.7362 35.2749 13.5404 35.2749 12.082C35.2749 10.9154 34.4291 10.0987 33.3791 9.74866V8.34871C34.4291 7.99871 35.2749 7.18199 35.2749 6.01533C35.2749 4.84866 34.4291 4.03203 33.3791 3.68203V1.84452H35.3916C36.4999 1.84452 37.4332 2.63206 37.6374 3.71123L41.3416 24.332C41.4291 24.7403 41.8082 25.0029 42.2166 24.9446C42.6249 24.8571 42.8874 24.4778 42.8291 24.0695L39.1249 3.44865C38.8041 1.64031 37.2291 0.327881 35.3916 0.327881H32.6499Z" fill="#E30613"/>
<path d="M31.8917 17.011C31.8917 17.4194 31.5417 17.7693 31.1333 17.7693C30.725 17.7693 30.375 17.4194 30.375 17.011C30.375 16.6027 30.725 16.2527 31.1333 16.2527C31.5417 16.2527 31.8917 16.5735 31.8917 17.011Z" fill="#E30613"/>
<path fill-rule="evenodd" clip-rule="evenodd" d="M26.8458 0.327881C25.0083 0.327881 23.4333 1.64031 23.1125 3.44865L19.4083 24.0695L20.8958 24.332L24.6 3.71123C24.8042 2.63206 25.7375 1.84452 26.8458 1.84452H28.8583V3.68203C27.8083 4.03203 26.9625 4.84866 26.9625 6.01533C26.9625 7.18199 27.8083 7.99871 28.8583 8.34871V9.74866C27.8083 10.0987 26.9625 10.9154 26.9625 12.082C26.9625 13.5404 28.1583 14.7362 29.6167 14.7362H31.1333H31.8917V13.2195H31.1333H29.6167C28.975 13.2195 28.4791 12.7237 28.4791 12.082C28.4791 11.4404 28.975 10.9445 29.6167 10.9445H30.375V7.15287H29.6167C28.975 7.15287 28.4791 6.65699 28.4791 6.01533C28.4791 5.37366 28.975 4.87787 29.6167 4.87787H30.375V0.327881H26.8458Z" fill="#E30613"/>
<path fill-rule="evenodd" clip-rule="evenodd" d="M0.0708008 30.6321V32.1488H6.13747C8.23747 32.1488 9.92914 33.8404 9.92914 35.9404V41.2488C9.92914 44.1655 12.3208 46.5571 15.2375 46.5571H15.2666H15.2958C18.125 46.4404 20.3125 44.0488 20.1958 41.2196V39.7321H18.6791V41.2779V41.3071C18.7666 43.2904 17.25 44.9529 15.2666 45.0404C13.1666 45.0404 11.5041 43.3488 11.5041 41.2488V35.9404C11.5041 33.0238 9.11246 30.6321 6.1958 30.6321H0.0708008Z" fill="#E30613"/>
</svg>
