<svg width="48" height="35" viewBox="0 0 48 35" fill="none" xmlns="http://www.w3.org/2000/svg">
<path d="M47.6 20.5848H44.5164V18.9778H41.4327V17.7799L37.8445 14.9751H35.2935V6.18062C35.2935 4.86584 34.2563 3.78479 32.9948 3.78479H32.2379V2.99592C32.2379 1.68114 31.2007 0.600098 29.9392 0.600098H8.43793C7.42874 0.600098 6.58775 1.2721 6.27939 2.20705H0V6.99871H6.13922V10.3587C5.24217 10.6801 4.59741 11.5566 4.59741 12.6084V18.2182H0V31.0154H4.59741V31.8043C4.59741 33.1191 5.63463 34.2001 6.89612 34.2001H29.9112C30.9204 34.2001 31.7614 33.5281 32.0697 32.5931H32.9668C33.976 32.5931 34.817 31.9211 35.1253 30.9862H37.8165L41.4047 28.1813V26.9834H44.4883V25.3765H47.572V20.5848H47.6ZM30.7241 2.99592V3.78479H27.6405V10.1834H10.7647V2.17783H29.9392C30.3877 2.17783 30.7241 2.55766 30.7241 2.99592ZM8.46595 2.17783H9.22285V10.1834H7.68104V2.99592C7.70907 2.55766 8.04546 2.17783 8.46595 2.17783ZM1.56985 5.39175V3.78479H6.16725V5.39175H1.56985ZM4.62544 19.7959V21.8411C4.17691 21.5782 3.64429 21.4029 3.08363 21.4029C2.52297 21.4029 1.99034 21.5782 1.54181 21.8411V19.7959H4.62544ZM4.62544 24.5876C4.62544 25.4641 3.92462 26.1945 3.08363 26.1945C2.24264 26.1945 1.54181 25.4641 1.54181 24.5876C1.54181 23.7111 2.24264 22.9806 3.08363 22.9806C3.92462 22.9806 4.62544 23.7111 4.62544 24.5876ZM1.56985 29.3792V27.334C2.01837 27.597 2.551 27.7723 3.11166 27.7723C3.67232 27.7723 4.20495 27.597 4.65348 27.334V29.3792H1.56985ZM30.7241 31.7751C30.7241 32.2133 30.3877 32.5639 29.9673 32.5639H10.7927V14.157H9.25089V32.5639H6.92414C6.50365 32.5639 6.16725 32.2133 6.16725 31.7751V12.5792C6.16725 12.141 6.50365 11.7904 6.92414 11.7904H26.0987V30.9862H27.6405V11.7904H29.9392C30.3597 11.7904 30.6961 12.141 30.6961 12.5792V31.7751H30.7241ZM33.7797 30.1973C33.7797 30.6356 33.4433 30.9862 33.0229 30.9862H32.266V12.5792C32.266 11.2644 31.2287 10.1834 29.9673 10.1834H29.2104V5.39175H33.0509C33.4714 5.39175 33.8078 5.74236 33.8078 6.18062V30.1973H33.7797ZM39.919 27.3925L37.368 29.3792H35.3216V16.582H37.368L39.919 18.5688V27.3925ZM43.0026 25.3765H41.4608V20.5848H43.0026V25.3765ZM46.0582 23.7987H44.5164V22.1918H46.0582V23.7987Z" fill="#E30613"/>
</svg>
