<svg width="36" height="39" viewBox="0 0 36 39" fill="none" xmlns="http://www.w3.org/2000/svg">
<path d="M32.9314 0.5H17.0768C15.6596 0.5 14.5081 1.62954 14.5081 3.01974V10.55C13.1205 10.8397 11.7919 11.2741 10.4928 11.8533C9.37089 12.3457 8.30801 12.867 7.24513 13.4752C5.11937 14.6627 3.64315 16.7191 3.22981 19.065L0.513565 34.4152C0.424991 34.9366 0.779275 35.4289 1.31071 35.5448C1.84215 35.6317 2.34407 35.2841 2.46217 34.7628L5.17841 19.4126C5.50318 17.6169 6.6251 16.0819 8.21942 15.184C9.22325 14.6337 10.2271 14.1414 11.29 13.678C12.3233 13.2146 13.4157 12.867 14.5377 12.6064V19.0361C14.3015 18.9492 14.0653 18.8623 13.8291 18.8044C13.2976 18.6596 12.7662 18.9782 12.6186 19.4705C12.471 19.9918 12.7957 20.5132 13.2976 20.658C13.8291 20.7738 14.3015 21.0055 14.7148 21.3241C14.1243 22.2509 13.3272 23.0329 12.4119 23.6411C11.969 23.9597 11.8509 24.539 12.1462 25.0024C12.4414 25.4658 13.0615 25.5527 13.5339 25.263C14.7148 24.481 15.6891 23.4674 16.4272 22.2799L19.6454 17.3273C20.1473 16.5163 21.2397 16.2846 22.0369 16.806C22.8635 17.2983 23.0998 18.3699 22.5683 19.1519L20.1769 22.946C19.2025 24.4521 18.7302 26.2188 18.7892 28.0145C18.8778 30.4473 17.6672 32.7354 15.6301 34.0966L15.3644 34.2704C14.331 34.9655 13.4453 35.8634 12.7662 36.935C12.4709 37.3984 12.6186 37.9776 13.091 38.2672C13.5634 38.5569 14.1539 38.4121 14.4491 37.9487C14.9805 37.1087 15.6596 36.4136 16.4863 35.8634L16.752 35.6896C18.2282 34.7048 19.3797 33.3146 20.0587 31.6927L20.2949 31.9244C21.5054 33.1119 23.4836 33.1409 24.6941 31.9534C25.0484 31.6058 25.3436 31.1714 25.4912 30.679C27.1151 31.0266 28.7389 30.0419 29.0932 28.4489C29.2113 27.8986 29.1818 27.3483 29.0046 26.827L28.9456 26.6822H32.9314C34.3486 26.6822 35.5 25.5527 35.5 24.1625V3.01974C35.4705 1.62954 34.3486 0.5 32.9314 0.5ZM24.2512 20.1367C25.2846 18.3989 24.6941 16.1688 22.9226 15.1551C21.2397 14.1704 19.0549 14.6627 17.9625 16.2557L16.4567 18.5727V3.01974C16.4567 2.70116 16.7225 2.4405 17.0472 2.4405H28.6208V24.7127H21.3873C21.5054 24.4521 21.653 24.1914 21.8007 23.9307L24.2512 20.1367ZM23.2179 30.6211C22.7455 30.9976 22.0959 30.9397 21.6826 30.5342L20.6492 29.4916C20.7378 28.9703 20.7673 28.4489 20.7378 27.9276C20.7378 27.4932 20.7673 27.0877 20.8263 26.6532H21.9188C21.9188 26.6532 21.9188 26.6822 21.9483 26.7112L23.4836 29.173C23.7788 29.6364 23.6607 30.2736 23.2179 30.6211ZM27.1151 27.4063C27.2922 27.9566 26.997 28.5358 26.4655 28.7096C26.0227 28.8544 25.4912 28.6806 25.255 28.2751C25.2255 28.2172 25.196 28.1593 25.1664 28.1014L24.2217 26.5953H26.8494L27.1151 27.4063ZM33.5219 24.1335C33.5219 24.4521 33.2562 24.7127 32.9314 24.7127H30.6285V2.4405H32.9314C33.2562 2.4405 33.5219 2.70116 33.5219 3.01974V24.1335Z" fill="#E30613"/>
</svg>
