<svg width="46" height="44" viewBox="0 0 46 44" fill="none" xmlns="http://www.w3.org/2000/svg">
<path d="M22.941 19.9754C23.0877 20.1221 23.2637 20.2394 23.4691 20.2394C23.6745 20.2394 23.9092 20.1807 24.0559 20.034L38.226 8.06419C38.3727 7.9175 38.4901 7.7415 38.4901 7.53613C38.4901 7.33077 38.4314 7.09607 38.2847 6.94939C34.4121 2.43136 29.014 0.0843506 23.4691 0.0843506C19.0098 0.0843506 14.5504 1.58056 10.9125 4.69036C10.5898 4.9544 10.5311 5.4825 10.7952 5.80521L22.941 19.9754ZM12.6435 5.39449C14.9025 3.66356 17.4255 2.54869 20.0366 2.02061L14.081 7.06672L12.6435 5.39449ZM26.6083 1.96197C27.3124 2.07932 28.0458 2.28466 28.7499 2.49003L17.9536 11.6141L17.1028 10.5872L26.3149 2.69541C26.6083 2.49005 26.6669 2.22601 26.6083 1.96197ZM20.9167 15.076L32.9452 4.89575C33.0626 4.7784 33.1506 4.63168 33.2093 4.45565C33.6493 4.71969 34.0601 5.0424 34.5001 5.36512L21.8262 16.1028L20.9167 15.076ZM19.8899 13.8437L18.9804 12.8169L30.3635 3.22347C30.4222 3.1648 30.4808 3.10611 30.5102 3.07677C30.9796 3.28214 31.4197 3.51684 31.9184 3.72221L19.8899 13.8437ZM36.5831 7.36011L23.6451 18.3031L22.853 17.3349L35.615 6.53866L35.6736 6.47997C35.9964 6.71467 36.3191 7.0374 36.5831 7.36011ZM24.9947 1.72726L16.0467 9.35506L15.1959 8.32827L22.0609 2.49003C22.2663 2.28466 22.3836 2.02064 22.3249 1.72726C22.765 1.66858 23.1171 1.66857 23.5571 1.66857C24.0265 1.66857 24.4959 1.66858 24.9947 1.72726Z" fill="#E30613"/>
<path d="M22.4717 22.3225L9.32835 6.77352C9.06431 6.4508 8.53624 6.3921 8.21352 6.65614C3.28477 10.8514 0.761719 16.807 0.761719 22.7919C0.761719 27.6327 2.43397 32.5028 5.80782 36.4634C10.0031 41.3921 15.9587 43.9151 21.9436 43.9151C26.7843 43.9151 31.6544 42.2429 35.615 38.869C35.7617 38.7224 35.8791 38.5463 35.8791 38.341C35.8791 38.1356 35.8204 37.9009 35.6737 37.7542L22.4717 22.3225ZM6.95199 35.4659L6.36524 35.9939L6.95199 35.4659C3.84219 31.7693 2.28729 27.31 2.28729 22.7919C2.28729 17.4818 4.42894 12.2303 8.62425 8.41643L21.2982 23.32L33.9428 38.2236C30.3929 41.0107 26.1682 42.3602 21.9143 42.3602C16.3401 42.3896 10.8246 40.0426 6.95199 35.4659Z" fill="#E30613"/>
<path d="M40.6022 9.56017C40.4556 9.41348 40.2795 9.29614 40.0742 9.29614C39.8688 9.29614 39.6341 9.35479 39.4874 9.50148L25.3173 21.53C25.1706 21.6767 25.0532 21.8527 25.0532 22.0581C25.0532 22.2634 25.1119 22.4981 25.2586 22.6448L37.2871 36.815C37.4338 36.9617 37.6098 37.079 37.8152 37.079C38.0205 37.079 38.2552 37.0203 38.4019 36.8737C42.9199 33.0011 45.267 27.6029 45.267 22.0581C45.2083 17.6574 43.7121 13.1981 40.6022 9.56017ZM37.9032 35.1427L26.9015 22.2048L39.8688 11.2031C42.3919 14.4302 43.5654 18.2735 43.5654 22.0874C43.5947 26.9575 41.6584 31.6515 37.9032 35.1427Z" fill="#E30613"/>
</svg>
