<svg width="44" height="43" viewBox="0 0 44 43" fill="none" xmlns="http://www.w3.org/2000/svg">
<path d="M25.8995 18.5359H6.71261C6.24321 18.5359 5.86182 18.9173 5.86182 19.3867C5.86182 19.8561 6.24321 20.2375 6.71261 20.2375H25.8995C26.3689 20.2375 26.7503 19.8561 26.7503 19.3867C26.7503 18.9173 26.3689 18.5359 25.8995 18.5359Z" fill="#E30613"/>
<path d="M25.8995 23.9341H6.71261C6.24321 23.9341 5.86182 24.3155 5.86182 24.7849C5.86182 25.2543 6.24321 25.6357 6.71261 25.6357H25.8995C26.3689 25.6357 26.7503 25.2543 26.7503 24.7849C26.7503 24.3155 26.3689 23.9341 25.8995 23.9341Z" fill="#E30613"/>
<path d="M25.8995 29.3616H6.71261C6.24321 29.3616 5.86182 29.743 5.86182 30.2124C5.86182 30.6818 6.24321 31.0632 6.71261 31.0632H25.8995C26.3689 31.0632 26.7503 30.6818 26.7503 30.2124C26.7503 29.743 26.3689 29.3616 25.8995 29.3616Z" fill="#E30613"/>
<path d="M27.8358 0.141113C19.3572 0.141113 12.4921 5.59794 12.4921 12.287C12.4921 12.375 12.5214 12.463 12.5214 12.5803H3.6321C2.0772 12.5803 0.815674 13.8419 0.815674 15.3968V34.2609C0.815674 35.8158 2.0772 37.0774 3.6321 37.0774H4.60023L10.0864 42.1235C10.2331 42.2702 10.4678 42.3582 10.6732 42.3582C10.8198 42.3582 10.9665 42.3288 11.0839 42.2408C11.4066 42.0648 11.5826 41.7128 11.5239 41.3314L10.7318 37.048H29.0679C30.6228 37.048 31.8844 35.7865 31.8844 34.2316V23.9927C32.5298 23.846 33.1752 23.6993 33.7913 23.494C34.7595 24.5501 37.2239 26.9852 39.7176 26.9852C40.0109 26.9852 40.275 26.8385 40.4217 26.6038C40.5684 26.3691 40.5977 26.0464 40.4803 25.7823C39.8056 24.3448 38.7494 21.0003 39.7469 20.0321C42.0059 17.8611 43.2675 15.1327 43.2675 12.3163C43.1794 5.56859 36.3144 0.141113 27.8358 0.141113ZM30.1241 34.2316C30.1241 34.8477 29.6254 35.3465 29.0093 35.3465H9.64633C9.38229 35.3465 9.14759 35.4638 9.0009 35.6398C8.85421 35.8452 8.7662 36.0799 8.82488 36.3439L9.32361 39.131L5.45103 35.5811C5.30434 35.4344 5.09898 35.3465 4.86428 35.3465H3.57341C2.95732 35.3465 2.45858 34.8477 2.45858 34.2316V15.3674C2.45858 14.7513 2.95732 14.2526 3.57341 14.2526H28.9799C29.596 14.2526 30.0948 14.7513 30.0948 15.3674V34.2316H30.1241ZM38.4854 18.7999C37.0185 20.2668 37.6639 23.1126 38.2507 24.9315C36.8718 24.3155 35.5223 22.9659 34.8182 22.2031C34.8182 22.1738 34.7888 22.1151 34.7595 22.0858C34.5541 21.7044 34.114 21.5284 33.7033 21.675C33.0579 21.9098 32.4125 22.0858 31.767 22.2325V15.3381C31.767 13.7832 30.5055 12.5216 28.9506 12.5216H14.135C14.135 12.4336 14.1057 12.3456 14.1057 12.2283C14.1057 6.47806 20.2373 1.78402 27.7771 1.78402C35.3169 1.78402 41.4485 6.47806 41.4485 12.2283C41.5072 14.6633 40.451 16.893 38.4854 18.7999Z" fill="#E30613"/>
</svg>
