<svg width="48" height="48" viewBox="0 0 48 48" fill="none" xmlns="http://www.w3.org/2000/svg">
<g clip-path="url(#clip0)">
<path d="M25.3069 22.6931H22.6931V25.3069H25.3069V22.6931Z" fill="#F6E2EF"/>
<path d="M35.1054 32.4916H32.4916V35.1054H35.1054V32.4916Z" fill="#F6E2EF"/>
<path d="M25.3069 32.4916H22.6931V35.1054H25.3069V32.4916Z" fill="#F6E2EF"/>
<path d="M35.1054 12.9016H32.4916V15.5154H35.1054V12.9016Z" fill="#F6E2EF"/>
<path d="M25.3069 12.9016H22.6931V15.5154H25.3069V12.9016Z" fill="#F6E2EF"/>
<path d="M15.5154 22.6931H12.9016V25.3069H15.5154V22.6931Z" fill="#F6E2EF"/>
<path d="M35.1054 22.6931H32.4916V25.3069H35.1054V22.6931Z" fill="#F6E2EF"/>
<path d="M15.5154 12.9016H12.9016V15.5154H15.5154V12.9016Z" fill="#F6E2EF"/>
<path d="M15.5154 32.4916H12.9016V35.1054H15.5154V32.4916Z" fill="#F6E2EF"/>
<path d="M45.4351 26.3343H44.8899H43.583H42.283H41.2557H36.1258H35.0984H33.7915H32.4846V31.4642H35.0984H36.1258H41.2557H42.283H44.8969H45.442C46.8538 31.4642 48.007 30.311 48.007 28.8992C48 27.4805 46.8538 26.3343 45.4351 26.3343Z" fill="#CEE8E6"/>
<path d="M22.6931 31.4642H25.3069V26.3343H24H22.6931H21.6657H16.5428H15.5154H14.2085H12.9016V31.4642H15.5154H16.5428H21.6657H22.6931Z" fill="#CEE8E6"/>
<path d="M2.56494 31.4642H5.72394V26.3343H2.56494C1.15317 26.3343 0 27.4805 0 28.8992C0 30.311 1.15317 31.4642 2.56494 31.4642Z" fill="#CEE8E6"/>
<path d="M2.56494 11.8742H5.72394V6.74432H2.56494C1.15317 6.74432 0 7.8975 0 9.30926C0 10.728 1.15317 11.8742 2.56494 11.8742Z" fill="#CEE8E6"/>
<path d="M6.74432 25.3069V25.8171V26.3343V31.4642V31.9744V32.4916V35.0984H11.8742V32.4916V31.9744V31.4642V26.3343V25.8171V25.3069V22.6931H6.74432V25.3069Z" fill="#F2D2E5"/>
<path d="M6.74432 45.4351C6.74432 46.8468 7.8975 48 9.30926 48C10.721 48 11.8742 46.8468 11.8742 45.4351V42.2831H6.74432V45.4351Z" fill="#F2D2E5"/>
<path d="M11.8742 12.9016V12.3914V11.8812V6.74432V6.23412V5.72393V2.56494C11.8742 1.15317 10.721 0 9.30926 0C7.8975 0 6.74432 1.15317 6.74432 2.56494V5.72393V6.23412V6.74432V11.8742V12.3844V12.8946V15.5154H11.8742V12.9016Z" fill="#F2D2E5"/>
<path d="M31.4642 12.9016V12.3914V11.8812V6.74432V6.23412V5.72393V2.56494C31.4642 1.15317 30.311 0 28.8992 0C27.4875 0 26.3343 1.15317 26.3343 2.56494V5.72393V6.23412V6.74432V11.8742V12.3844V12.8946V15.5154H31.4642V12.9016Z" fill="#F2D2E5"/>
<path d="M26.3343 25.3069V25.8171V26.3343V31.4642V31.9744V32.4916V35.0984H31.4642V32.4916V31.9744V31.4642V26.3343V25.8171V25.3069V22.6931H26.3343V25.3069Z" fill="#F2D2E5"/>
<path d="M26.3343 45.4351C26.3343 46.8468 27.4875 48 28.8992 48C30.311 48 31.4642 46.8468 31.4642 45.4351V42.2831H26.3343V45.4351Z" fill="#F2D2E5"/>
<path d="M45.4351 36.1258H42.2831V41.2557H45.4421C46.8538 41.2557 48.007 40.1025 48.007 38.6907C48 37.279 46.8538 36.1258 45.4351 36.1258Z" fill="#AFDDD2"/>
<path d="M12.3914 36.1258H11.8812H6.74432H6.23412H5.72393H2.56494C1.15317 36.1258 0 37.279 0 38.6907C0 40.1025 1.15317 41.2557 2.56494 41.2557H5.72393H6.23412H6.74432H11.8742H12.3844H12.8946H15.5154V36.1258H12.9016H12.3914Z" fill="#AFDDD2"/>
<path d="M31.9744 36.1258H31.4642H26.3343H25.8171H25.3069H22.6931V41.2557H25.3069H25.8171H26.3343H31.4642H31.9744H32.4915H35.0984V36.1258H32.4915H31.9744Z" fill="#AFDDD2"/>
<path d="M45.4351 16.5428H42.2831V21.6657H45.4421C46.8538 21.6657 48.007 20.5125 48.007 19.1007C48 17.689 46.8538 16.5428 45.4351 16.5428Z" fill="#AFDDD2"/>
<path d="M2.56494 21.6657H5.72393H6.23412H6.74432H11.8742H12.3844H12.8946H15.5154V16.5358H12.9016H12.3914H11.8812H6.74432H6.23412H5.72393H2.56494C1.15317 16.5428 0 17.689 0 19.1077C0 20.5195 1.15317 21.6657 2.56494 21.6657Z" fill="#AFDDD2"/>
<path d="M22.6931 16.5428V21.6657H25.3069H25.8171H26.3343H31.4642H31.9744H32.4915H35.0984V16.5428H32.4915H31.9744H31.4642H26.3343H25.8171H25.3069H22.6931Z" fill="#AFDDD2"/>
<path d="M16.5428 35.0984V35.6086V36.1188V41.2487V41.7589V42.2691V45.4281C16.5428 46.8398 17.696 47.993 19.1077 47.993C20.5195 47.993 21.6727 46.8398 21.6727 45.4281V42.283V41.7728V41.2627V36.1328V35.6226V35.1124V32.4985H16.5428V35.0984Z" fill="#A4D9CC"/>
<path d="M21.6657 2.56494C21.6657 1.15317 20.5195 0 19.1077 0C17.696 0 16.5428 1.15317 16.5428 2.56494V5.72394H21.6657V2.56494Z" fill="#A4D9CC"/>
<path d="M16.5428 15.5154V16.0256V16.5428V21.6657V22.1829V22.6931V25.3069H21.6657V22.6931V22.1829V21.6657V16.5428V16.0256V15.5154V12.9016H16.5428V15.5154Z" fill="#A4D9CC"/>
<path d="M41.2557 2.56494C41.2557 1.15317 40.1025 0 38.6907 0C37.279 0 36.1258 1.15317 36.1258 2.56494V5.72394H41.2557V2.56494Z" fill="#A4D9CC"/>
<path d="M36.1258 15.5154V16.0256V16.5428V21.6657V22.1829V22.6931V25.3069H41.2557V22.6931V22.1829V21.6657V16.5428V16.0256V15.5154V12.9016H36.1258V15.5154Z" fill="#A4D9CC"/>
<path d="M36.1258 35.0984V35.6086V36.1188V41.2487V41.7589V42.2691V45.4281C36.1258 46.8398 37.279 47.993 38.6907 47.993C40.1025 47.993 41.2557 46.8398 41.2557 45.4281V42.283V41.7728V41.2627V36.1328V35.6226V35.1124V32.4985H36.1258V35.0984Z" fill="#A4D9CC"/>
<path d="M15.5154 11.8742H16.5428H21.6657H22.6931H24H25.3069V6.74432H24H22.6931H21.6657H16.5428H15.5154H14.2085H12.9016V11.8742H14.2085H15.5154Z" fill="#CEE8E6"/>
<path d="M35.0984 11.8742H36.1258H41.2557H42.283H43.59H44.8969H45.442C46.8538 11.8742 48.007 10.721 48.007 9.30926C48.007 7.8975 46.8538 6.74432 45.442 6.74432H44.8969H43.59H42.283H41.2557H36.1258H35.0984H33.7915H32.4846V11.8742H33.7915H35.0984Z" fill="#CEE8E6"/>
</g>
<defs>
<clipPath id="clip0">
<rect width="48" height="48" fill="white"/>
</clipPath>
</defs>
</svg>
