<svg width="84" height="84" viewBox="0 0 84 84" fill="none" xmlns="http://www.w3.org/2000/svg">
<g clip-path="url(#clip0)">
<path d="M26.5851 58.7935C40.1306 58.7935 47.5906 50.8365 47.5906 36.3877C47.5906 22.8599 28.4422 1.35182 27.6271 0.444452C27.3543 0.160687 26.9782 0 26.5851 0C26.1919 0 25.8151 0.160687 25.543 0.444452C24.7279 1.35182 5.57953 22.8599 5.57953 36.3877C5.57953 50.8365 13.0395 58.7935 26.5851 58.7935ZM26.5851 3.51528C30.594 8.22032 44.7898 25.634 44.7898 36.3877C44.7898 45.3314 41.6308 55.9928 26.5851 55.9928C11.5393 55.9928 8.38026 45.3314 8.38026 36.3877C8.38026 25.634 22.5754 8.22032 26.5851 3.51528Z" fill="#00BC8E"/>
<path d="M65.7953 61.5945C73.8051 61.5945 78.3987 56.2495 78.3987 46.9269C78.3987 38.1732 67.2921 26.1402 66.8203 25.6315C66.5495 25.358 66.1803 25.2041 65.7953 25.2041C65.4104 25.2041 65.0411 25.358 64.7704 25.6315C64.2986 26.1402 53.192 38.1732 53.192 46.9269C53.192 56.2495 57.7849 61.5945 65.7953 61.5945ZM65.7953 28.6995C68.4962 31.8422 75.5979 40.6984 75.5979 46.9269C75.5979 54.8012 72.3001 58.7938 65.7953 58.7938C59.2906 58.7938 55.9928 54.8012 55.9928 46.9269C55.9928 40.6984 63.0937 31.8422 65.7953 28.6995Z" fill="#00BC8E"/>
<path d="M45.1399 56.4661C44.7829 56.8709 36.3876 66.4595 36.3876 72.7974C36.3876 79.9168 39.961 84.0003 46.1901 84.0003C52.4186 84.0003 55.9927 79.9168 55.9927 72.7974C55.9927 66.4595 47.5973 56.8709 47.2404 56.4661C46.9669 56.1776 46.5874 56.0142 46.1901 56.0142C45.7929 56.0142 45.4127 56.1776 45.1399 56.4661ZM46.1901 81.1996C41.5453 81.1996 39.1883 78.3722 39.1883 72.7974C39.1883 68.9908 43.5699 62.7945 46.1901 59.5664C48.8117 62.7876 53.192 68.9853 53.192 72.7974C53.192 78.3722 50.835 81.1996 46.1901 81.1996Z" fill="#00BC8E"/>
<path d="M23.6441 53.1855C23.6906 53.1903 23.7371 53.1923 23.7843 53.1923C24.5303 53.1923 25.1457 52.607 25.1833 51.8617C25.2202 51.1164 24.667 50.4729 23.9244 50.3984C20.9993 50.2514 18.2765 48.8613 16.4419 46.5782C12.7174 41.722 13.9509 33.8935 13.9619 33.8156C14.0638 33.0655 13.5509 32.3701 12.8042 32.2456C12.0576 32.1219 11.3471 32.6135 11.2008 33.3561C11.1386 33.726 9.74983 42.4386 14.2101 48.2698C16.5048 51.1848 19.9401 52.9749 23.6441 53.1855Z" fill="#00BC8E"/>
<path d="M64.3949 55.993C66.9789 55.9561 69.4426 54.8949 71.2443 53.0426C72.804 51.0364 73.3681 48.4305 72.7773 45.9594C72.6337 45.2127 71.9212 44.7169 71.1711 44.8421C70.421 44.9679 69.9082 45.6687 70.0163 46.4216C70.445 48.0749 70.1154 49.8343 69.1171 51.2203C67.8501 52.4525 66.1618 53.1574 64.3949 53.1923C63.6216 53.1923 62.9946 53.8193 62.9946 54.5927C62.9946 55.366 63.6216 55.993 64.3949 55.993Z" fill="#00BC8E"/>
<path d="M45.4154 75.7452C44.9785 75.5688 44.6414 75.2098 44.4923 74.7626C44.344 74.3161 44.3987 73.8258 44.6428 73.4231C44.9881 72.7311 44.7077 71.8894 44.0151 71.5441C43.3231 71.1981 42.4821 71.4791 42.1361 72.1711C41.5603 73.2405 41.4516 74.5007 41.8352 75.6529C42.2195 76.805 43.0619 77.7479 44.1635 78.2587C44.8561 78.6047 45.6971 78.3237 46.0431 77.631C46.3884 76.939 46.1081 76.098 45.4154 75.752V75.7452Z" fill="#00BC8E"/>
</g>
<defs>
<clipPath id="clip0">
<rect width="84" height="84" fill="white"/>
</clipPath>
</defs>
</svg>
