<svg width="84" height="84" viewBox="0 0 84 84" fill="none" xmlns="http://www.w3.org/2000/svg">
<g clip-path="url(#clip0)">
<path d="M73.4356 25.501C74.4049 23.6856 74.9081 21.6579 74.9 19.6C74.8923 12.6444 69.2556 7.00772 62.3 7C59.6028 7.05201 57.0014 8.00905 54.9136 9.7174C53.5083 4.08904 48.5002 0.104534 42.7 0C36.8959 0.102718 31.8838 4.08944 30.478 9.7216C28.3935 8.01255 25.795 7.05399 23.1 7C16.1444 7.00772 10.5077 12.6444 10.5 19.6C10.4919 21.6579 10.9951 23.6856 11.9644 25.501C7.49564 26.455 3.89484 29.7558 2.55671 34.1249C1.21859 38.494 2.35332 43.2452 5.52139 46.5381C8.68947 49.831 13.3933 51.1484 17.8108 49.98C19.8151 51.2266 22.1404 51.8593 24.5 51.8C33.4334 51.8 35.7 52.08 35.7 54.6C35.6569 56.5302 36.7402 58.3093 38.4748 59.157C38.651 65.72 37.7781 72.2691 35.889 78.5568C35.5558 79.6236 35.6627 80.7792 36.1859 81.7667C36.7091 82.7543 37.6053 83.4918 38.675 83.8152C40.8879 84.4948 43.2327 83.2519 43.9124 81.039C46.0502 73.9544 47.0543 66.5763 46.8874 59.178C48.6423 58.3364 49.7424 56.5458 49.7 54.6C49.7 52.08 51.9666 51.8 60.9 51.8C63.2596 51.8593 65.5849 51.2266 67.5892 49.98C71.9909 51.1045 76.6569 49.7693 79.7974 46.4866C82.938 43.2039 84.0654 38.4834 82.7474 34.1358C81.4293 29.7882 77.8703 26.4885 73.4356 25.5024V25.501ZM41.2356 80.2214C41.0663 80.7615 40.5885 81.1465 40.0247 81.1971C39.461 81.2476 38.9223 80.9538 38.6596 80.4524C38.486 80.1245 38.4517 79.7405 38.5644 79.387C40.4495 73.1282 41.3691 66.6185 41.2916 60.0824C42.2227 60.2383 43.1731 60.2383 44.1042 60.0824C44.1731 66.9016 43.2054 73.6916 41.2342 80.22L41.2356 80.2214ZM46.9 54.6C46.8606 55.7434 46.0654 56.7211 44.954 56.9926C44.9116 57.0055 44.87 57.021 44.8294 57.0388C44.1408 57.2616 43.4235 57.3832 42.7 57.4C41.893 57.3805 41.0947 57.2287 40.3368 56.9506L40.313 56.9408C39.2615 56.6415 38.5269 55.693 38.5 54.6C38.5 49 33.2304 49 24.5 49C21.4661 49.2187 18.5588 47.7463 16.94 45.171C19.411 45.4748 23.0622 45.6862 25.1258 44.653C25.7608 44.3285 26.3739 43.9628 26.9612 43.5582C28.154 42.7644 28.5572 42.4956 31.0576 43.3272C31.7223 43.5472 32.4473 43.2423 32.755 42.6134C33.0627 41.9846 32.8586 41.225 32.277 40.8352C32.249 40.8156 29.8536 39.1552 30.73 34.9034C32.1825 35.924 33.9255 36.4488 35.7 36.4C39.2462 36.4 41.3 37.3156 41.3 42C41.3 42.7732 41.9268 43.4 42.7 43.4C43.4732 43.4 44.1 42.7732 44.1 42C44.1 37.3156 46.1538 36.4 49.7 36.4C51.4738 36.4482 53.216 35.924 54.6686 34.9048C55.5226 39.0726 53.2238 40.7638 53.1286 40.8352C52.5471 41.225 52.3429 41.9846 52.6506 42.6134C52.9583 43.2423 53.6833 43.5472 54.348 43.3272C56.8484 42.4956 57.2502 42.7672 58.4444 43.5582C59.0317 43.9628 59.6448 44.3285 60.2798 44.653C62.3504 45.6876 66.0198 45.4734 68.4894 45.1682C66.871 47.7596 63.9461 49.2364 60.9 49C52.1696 49 46.9 49 46.9 54.6ZM70.7 47.6C70.5362 47.6 70.3766 47.5706 70.2142 47.5636C71.1144 46.4232 71.7491 45.0965 72.072 43.68C72.1662 43.2193 72.0228 42.7422 71.6903 42.4097C71.3578 42.0772 70.8807 41.9338 70.42 42.028C67.9 42.5306 63.2464 43.008 61.5202 42.147C60.9865 41.8763 60.472 41.5695 59.9802 41.2286C59.1332 40.5594 58.1137 40.1444 57.0402 40.0316C58.0041 37.2984 57.8419 34.2942 56.5894 31.6806C56.3811 31.1772 55.9011 30.8392 55.357 30.8125C54.8128 30.7859 54.3021 31.0754 54.0456 31.556C53.0733 32.9731 51.4116 33.7547 49.7 33.6C47.3074 33.6 44.3912 33.9822 42.7 36.4406C41.0088 33.9822 38.0926 33.6 35.7 33.6C33.9942 33.7547 32.3368 32.9811 31.36 31.5742C31.1172 31.0734 30.5968 30.768 30.0412 30.8C29.4902 30.8229 29.0041 31.1671 28.7994 31.6792C27.5469 34.2928 27.3847 37.297 28.3486 40.0302C27.2752 40.1436 26.2559 40.5586 25.4086 41.2272C24.919 41.5678 24.4069 41.8746 23.8756 42.1456C22.1536 43.0094 17.5028 42.5306 14.9758 42.0266C14.5155 41.9339 14.0394 42.0782 13.7079 42.4108C13.3764 42.7434 13.2338 43.22 13.328 43.68C13.6501 45.0985 14.2848 46.4272 15.1858 47.5692C15.0234 47.5762 14.8638 47.6056 14.7 47.6056C9.65687 47.6211 5.42655 43.8042 4.92531 38.786C4.42407 33.7678 7.81583 29.1895 12.7624 28.2072C12.7878 28.9622 12.9674 29.704 13.2902 30.387C13.4938 30.8544 13.9354 31.1741 14.443 31.2217C14.9505 31.2693 15.4438 31.0372 15.7308 30.6158C16.0178 30.1945 16.053 29.6505 15.8228 29.1956C15.5053 28.5234 15.4681 27.7526 15.7194 27.053C15.9707 26.3534 16.4899 25.7825 17.1626 25.466C17.6258 25.2592 17.9409 24.8179 17.9862 24.3127C18.0315 23.8074 17.7999 23.3172 17.3809 23.0312C16.9619 22.7453 16.421 22.7084 15.967 22.9348C15.3819 23.2167 14.8511 23.5997 14.399 24.066C13.6779 22.6877 13.3008 21.1555 13.3 19.6C13.3062 14.1902 17.6902 9.80617 23.1 9.8C25.3981 9.87935 27.5883 10.7943 29.26 12.3732C28.6895 12.8908 28.2323 13.521 27.9174 14.224C27.603 14.9299 27.9201 15.7571 28.6258 16.072C28.8048 16.1529 28.9991 16.1944 29.1956 16.1938C29.7478 16.1938 30.2485 15.8692 30.4738 15.365C31.1065 13.9551 32.7599 13.3218 34.1726 13.9482C34.632 14.1686 35.1748 14.122 35.5899 13.8266C36.0051 13.5311 36.2269 13.0335 36.1691 12.5273C36.1114 12.021 35.7832 11.5862 35.3122 11.3918C34.611 11.079 33.8526 10.915 33.0848 10.9102C34.0326 6.31084 38.0067 2.95876 42.7 2.8C47.4123 2.90441 51.4134 6.28216 52.3068 10.9102C51.5452 10.9182 50.7934 11.0821 50.0976 11.3918C49.6409 11.5959 49.3279 12.0281 49.2762 12.5256C49.2247 13.0231 49.4424 13.5103 49.8475 13.8038C50.2525 14.0972 50.7833 14.1523 51.24 13.9482C52.6523 13.3185 54.3076 13.9528 54.9374 15.365C55.1629 15.8696 55.6643 16.1944 56.217 16.1938C56.4134 16.1943 56.6077 16.1528 56.7868 16.072C57.4925 15.7571 57.8096 14.9299 57.4952 14.224C57.1785 13.5155 56.7168 12.8812 56.14 12.362C57.8137 10.7877 60.0035 9.87694 62.3 9.8C67.7098 9.80617 72.0938 14.1902 72.1 19.6C72.0993 21.1519 71.7237 22.6807 71.0052 24.0562C70.5549 23.5951 70.0276 23.216 69.447 22.9362C68.9923 22.705 68.4479 22.7393 68.0259 23.0258C67.6039 23.3123 67.3711 23.8057 67.4183 24.3136C67.4655 24.8215 67.7852 25.2635 68.2528 25.4674C68.9252 25.7841 69.4441 26.3552 69.6952 27.0547C69.9462 27.7543 69.9088 28.525 69.5912 29.197C69.2622 29.8967 69.5628 30.7307 70.2625 31.0597C70.9622 31.3887 71.7962 31.0881 72.1252 30.3884C72.4494 29.7061 72.6314 28.9649 72.66 28.21C77.5905 29.2115 80.9599 33.7862 80.4539 38.7919C79.9479 43.7976 75.7312 47.6054 70.7 47.6Z" fill="#00BC8E"/>
</g>
<defs>
<clipPath id="clip0">
<rect width="84" height="84" fill="white"/>
</clipPath>
</defs>
</svg>
