<svg width="34" height="32" viewBox="0 0 34 32" fill="none" xmlns="http://www.w3.org/2000/svg">
<g opacity="0.2">
<path fill-rule="evenodd" clip-rule="evenodd" d="M24.3351 3.90638C26.4257 5.88369 27.6007 8.53877 27.6598 11.404C30.8488 13.2413 33.0003 16.6855 33 20.6228C33 26.4849 28.2309 31.254 22.3689 31.254C20.4529 31.254 18.612 30.7486 16.9998 29.802C15.3877 30.7486 13.5468 31.254 11.6308 31.254C9.9289 31.254 8.23571 30.8414 6.73421 30.0609C6.50361 29.941 6.41383 29.6569 6.53367 29.4263C6.65351 29.1957 6.93769 29.1059 7.16828 29.2258C8.55584 29.947 10.0572 30.3128 11.6308 30.3128C13.2155 30.3128 14.7438 29.9334 16.1111 29.2186C15.6864 28.9082 15.2817 28.5644 14.9007 28.1883C14.7158 28.0057 14.7139 27.7077 14.8965 27.5228C15.0791 27.3379 15.3771 27.3359 15.562 27.5185C16.008 27.9589 16.4897 28.3505 16.9999 28.6915C17.5102 28.3505 17.9918 27.9589 18.4378 27.5185C18.6228 27.3359 18.9207 27.3378 19.1033 27.5228C19.2859 27.7077 19.284 28.0057 19.0991 28.1883C18.718 28.5644 18.3134 28.9082 17.8887 29.2186C19.2561 29.9334 20.7844 30.3128 22.369 30.3128C27.712 30.3128 32.0589 25.9659 32.0589 20.6228C32.0589 17.2169 30.2925 14.2163 27.6278 12.4878C27.3393 16.0895 25.2477 19.1904 22.2586 20.8854C22.2451 21.4347 22.1897 21.9838 22.0927 22.5213C22.0517 22.7489 21.8535 22.9085 21.6302 22.9085C21.6024 22.9085 21.5744 22.906 21.5461 22.901C21.2904 22.8549 21.1204 22.6101 21.1665 22.3544C21.2251 22.03 21.2665 21.7008 21.2918 21.3701C19.9867 21.9432 18.5457 22.2621 17.0314 22.2621C15.492 22.2621 14.0282 21.9328 12.7061 21.3416C12.7311 21.6819 12.7734 22.0207 12.8335 22.3544C12.8796 22.6101 12.7097 22.8548 12.4539 22.901C12.4257 22.906 12.3976 22.9085 12.3699 22.9085C12.1466 22.9085 11.9484 22.7489 11.9073 22.5213C11.8083 21.9722 11.7525 21.4109 11.7406 20.8496C8.7747 19.1407 6.70635 16.042 6.43158 12.4493C3.73383 14.1716 1.94119 17.1917 1.94119 20.6228C1.94119 23.5519 3.24642 26.2932 5.52215 28.144C5.72381 28.308 5.75431 28.6044 5.59035 28.806C5.49736 28.9204 5.36171 28.9797 5.22498 28.9797C5.12057 28.9798 5.0156 28.9452 4.92832 28.8742C2.43179 26.8439 1 23.8364 1 20.6228C1 16.6596 3.1801 13.1966 6.40372 11.3686C6.54365 5.62737 11.2573 1 17.0315 1C19.0242 1 20.9676 1.55543 22.6517 2.60629C22.8722 2.74383 22.9394 3.03415 22.8018 3.25464C22.6642 3.47513 22.3739 3.54227 22.1534 3.40473C20.619 2.44723 18.8479 1.94112 17.0315 1.94112C11.9398 1.94112 7.75282 5.88864 7.3702 10.884C8.67537 10.3108 10.1166 9.99171 11.6311 9.99171C13.5553 9.99171 15.3921 10.4946 17.0002 11.4395C18.6081 10.4946 20.445 9.99171 22.3692 9.99171C23.9089 9.99171 25.3729 10.3211 26.6952 10.9126C26.5209 8.49761 25.4689 6.27428 23.6883 4.59018C23.4995 4.41155 23.4912 4.11376 23.6698 3.92489C23.8483 3.73609 24.1461 3.72774 24.3351 3.90638ZM22.132 18.9577C22.1761 19.2378 22.2089 19.5208 22.2307 19.8047C24.841 18.1384 26.6034 15.2569 26.7151 11.9638C25.4073 11.3047 23.931 10.9328 22.3692 10.9328C20.7779 10.9328 19.2521 11.3102 17.8881 12.0235C18.3994 12.3978 18.8817 12.8209 19.3294 13.2908C19.5087 13.4791 19.5015 13.7769 19.3133 13.9562C19.1251 14.1355 18.8272 14.1283 18.6479 13.9401C18.1436 13.4108 17.5911 12.9469 17.0002 12.5514C16.4092 12.9469 15.8566 13.4107 15.3524 13.9401C15.1731 14.1282 14.8753 14.1354 14.687 13.9562C14.4989 13.7769 14.4916 13.479 14.6709 13.2908C15.1186 12.8209 15.6009 12.3978 16.1122 12.0235C14.7482 11.3102 13.2224 10.9328 11.6311 10.9328C10.0938 10.9328 8.63929 11.2933 7.34673 11.9332C7.44775 15.2139 9.18712 18.0889 11.7726 19.7661C11.7944 19.4952 11.8261 19.2251 11.8682 18.9577C11.9086 18.7009 12.1493 18.5253 12.4062 18.566C12.663 18.6063 12.8384 18.8472 12.798 19.104C12.7364 19.4954 12.6989 19.8929 12.6853 20.2899C13.9932 20.9491 15.4696 21.321 17.0315 21.321C18.5688 21.321 20.0233 20.9605 21.3159 20.3207C21.3032 19.9134 21.2655 19.5055 21.2023 19.104C21.1619 18.8472 21.3373 18.6064 21.594 18.566C21.8503 18.5254 22.0916 18.7009 22.132 18.9577ZM20.768 15.1862C20.6348 14.963 20.346 14.8898 20.1228 15.023C19.8995 15.1562 19.8265 15.445 19.9596 15.6682C20.2822 16.2094 20.5526 16.7842 20.7633 17.3769C20.8319 17.5696 21.0132 17.69 21.2068 17.69C21.2591 17.69 21.3123 17.6812 21.3644 17.6627C21.6093 17.5756 21.7372 17.3065 21.6502 17.0616C21.4189 16.4111 21.1221 15.7801 20.768 15.1862ZM20.2265 26.5123C20.3826 26.5123 20.5352 26.4347 20.6248 26.293C20.9984 25.7014 21.3144 25.0705 21.564 24.4177C21.6568 24.1749 21.5352 23.9028 21.2925 23.81C21.0497 23.7172 20.7777 23.8388 20.6848 24.0816C20.4574 24.6764 20.1696 25.2513 19.829 25.7903C19.6903 26.01 19.7558 26.3007 19.9756 26.4395C20.0536 26.4888 20.1406 26.5123 20.2265 26.5123ZM13.7738 26.5122C13.8597 26.5122 13.9467 26.4887 14.0247 26.4394C14.2444 26.3006 14.3101 26.01 14.1712 25.7903C13.8307 25.2513 13.5428 24.6764 13.3154 24.0816C13.2226 23.8388 12.9506 23.7173 12.7078 23.81C12.465 23.9028 12.3434 24.1748 12.4362 24.4176C12.6858 25.0705 13.0018 25.7014 13.3755 26.2929C13.4651 26.4346 13.6177 26.5122 13.7738 26.5122ZM13.2323 15.1861C13.3654 14.9629 13.6543 14.8899 13.8775 15.0229C14.1008 15.1561 14.1738 15.4449 14.0407 15.6681C13.718 16.2092 13.4476 16.7841 13.2369 17.3767C13.1684 17.5695 12.987 17.6898 12.7935 17.6898C12.7412 17.6898 12.688 17.681 12.6359 17.6625C12.391 17.5754 12.263 17.3064 12.3501 17.0615C12.5813 16.411 12.8781 15.78 13.2323 15.1861Z" fill="black"/>
<path d="M27.6598 11.404L27.1579 11.4143L27.1638 11.6975L27.4092 11.8389L27.6598 11.404ZM24.3351 3.90638L24.68 3.5417L24.6799 3.54165L24.3351 3.90638ZM33 20.6228L32.498 20.6228V20.6228H33ZM16.9998 29.802L17.254 29.3692L16.9998 29.22L16.7457 29.3692L16.9998 29.802ZM6.73421 30.0609L6.50262 30.5063L6.50269 30.5063L6.73421 30.0609ZM7.16828 29.2258L6.9367 29.6711L6.93677 29.6712L7.16828 29.2258ZM16.1111 29.2186L16.3437 29.6635L17.0589 29.2896L16.4073 28.8134L16.1111 29.2186ZM14.9007 28.1883L14.5481 28.5455L14.5481 28.5455L14.9007 28.1883ZM14.8965 27.5228L14.5393 27.1701L14.5393 27.1701L14.8965 27.5228ZM15.562 27.5185L15.2093 27.8757L15.2093 27.8758L15.562 27.5185ZM16.9999 28.6915L16.721 29.1088L16.9999 29.2952L17.2788 29.1089L16.9999 28.6915ZM18.4378 27.5185L18.7905 27.8758L18.7905 27.8757L18.4378 27.5185ZM19.1033 27.5228L18.7461 27.8754L18.7462 27.8755L19.1033 27.5228ZM19.0991 28.1883L19.4517 28.5455L19.4517 28.5455L19.0991 28.1883ZM17.8887 29.2186L17.5924 28.8134L16.941 29.2897L17.6562 29.6635L17.8887 29.2186ZM27.6278 12.4878L27.901 12.0667L27.1947 11.6085L27.1275 12.4477L27.6278 12.4878ZM22.2586 20.8854L22.011 20.4487L21.7638 20.5889L21.7568 20.8731L22.2586 20.8854ZM22.0927 22.5213L21.5987 22.4323L21.5987 22.4323L22.0927 22.5213ZM21.5461 22.901L21.4572 23.395L21.4572 23.395L21.5461 22.901ZM21.1665 22.3544L20.6726 22.2652L20.6725 22.2653L21.1665 22.3544ZM21.2918 21.3701L21.7923 21.4083L21.8561 20.574L21.0899 20.9105L21.2918 21.3701ZM12.7061 21.3416L12.911 20.8834L12.1438 20.5403L12.2055 21.3784L12.7061 21.3416ZM12.8335 22.3544L13.3275 22.2653L13.3275 22.2653L12.8335 22.3544ZM12.4539 22.901L12.3649 22.407L12.3648 22.407L12.4539 22.901ZM11.9073 22.5213L11.4133 22.6104L11.4133 22.6104L11.9073 22.5213ZM11.7406 20.8496L12.2424 20.8389L12.2364 20.556L11.9912 20.4147L11.7406 20.8496ZM6.43158 12.4493L6.93208 12.4111L6.86815 11.5751L6.16148 12.0262L6.43158 12.4493ZM5.52215 28.144L5.83887 27.7546L5.83886 27.7546L5.52215 28.144ZM5.59035 28.806L5.20092 28.4893L5.20086 28.4894L5.59035 28.806ZM5.22498 28.9797V28.4777H5.22468L5.22498 28.9797ZM4.92832 28.8742L4.61161 29.2637L4.61165 29.2637L4.92832 28.8742ZM6.40372 11.3686L6.65133 11.8052L6.89861 11.665L6.90554 11.3808L6.40372 11.3686ZM22.6517 2.60629L22.3859 3.03214L22.386 3.03218L22.6517 2.60629ZM22.8018 3.25464L22.3759 2.98889L22.3759 2.98897L22.8018 3.25464ZM22.1534 3.40473L21.8877 3.83058L21.8877 3.83062L22.1534 3.40473ZM7.3702 10.884L6.8697 10.8457L6.80578 11.6802L7.57205 11.3436L7.3702 10.884ZM17.0002 11.4395L16.7459 11.8723L17.0002 12.0217L17.2545 11.8723L17.0002 11.4395ZM26.6952 10.9126L26.4903 11.3708L27.2563 11.7134L27.1959 10.8764L26.6952 10.9126ZM23.6883 4.59018L23.3433 4.9548L23.3434 4.95487L23.6883 4.59018ZM23.6698 3.92489L24.0345 4.26976L24.0345 4.26975L23.6698 3.92489ZM22.2307 19.8047L21.7302 19.8431L21.7943 20.6788L22.5008 20.2278L22.2307 19.8047ZM22.132 18.9577L21.6361 19.0357L21.6362 19.0358L22.132 18.9577ZM26.7151 11.9638L27.2168 11.9808L27.2277 11.66L26.941 11.5156L26.7151 11.9638ZM17.8881 12.0235L17.6555 11.5787L16.9411 11.9523L17.5916 12.4285L17.8881 12.0235ZM19.3294 13.2908L19.6929 12.9446L19.6928 12.9446L19.3294 13.2908ZM19.3133 13.9562L18.967 13.5927L18.967 13.5928L19.3133 13.9562ZM18.6479 13.9401L19.0114 13.5939L19.0113 13.5938L18.6479 13.9401ZM17.0002 12.5514L17.2793 12.1343L17.0002 11.9474L16.721 12.1343L17.0002 12.5514ZM15.3524 13.9401L15.7158 14.2863L15.7158 14.2863L15.3524 13.9401ZM14.687 13.9562L14.3408 14.3196L14.3409 14.3197L14.687 13.9562ZM14.6709 13.2908L14.3075 12.9446L14.3075 12.9446L14.6709 13.2908ZM16.1122 12.0235L16.4087 12.4285L17.0591 11.9522L16.3448 11.5787L16.1122 12.0235ZM7.34673 11.9332L7.12403 11.4833L6.83508 11.6264L6.84501 11.9486L7.34673 11.9332ZM11.7726 19.7661L11.4995 20.1872L12.2055 20.6452L12.273 19.8063L11.7726 19.7661ZM11.8682 18.9577L12.3641 19.0358L12.3641 19.0356L11.8682 18.9577ZM12.4062 18.566L12.3278 19.0618L12.3283 19.0619L12.4062 18.566ZM12.798 19.104L12.3021 19.0259L12.3021 19.026L12.798 19.104ZM12.6853 20.2899L12.1836 20.2727L12.1726 20.5937L12.4594 20.7382L12.6853 20.2899ZM21.3159 20.3207L21.5386 20.7705L21.8276 20.6274L21.8176 20.305L21.3159 20.3207ZM21.2023 19.104L21.6982 19.0259L21.6982 19.0259L21.2023 19.104ZM21.594 18.566L21.6721 19.0618L21.6725 19.0618L21.594 18.566ZM20.1228 15.023L20.3799 15.4541L20.38 15.4541L20.1228 15.023ZM20.768 15.1862L21.1991 14.9291L21.1991 14.9291L20.768 15.1862ZM19.9596 15.6682L19.5284 15.9253L19.5284 15.9253L19.9596 15.6682ZM20.7633 17.3769L21.2363 17.2087L21.2363 17.2087L20.7633 17.3769ZM21.3644 17.6627L21.5325 18.1356L21.5326 18.1356L21.3644 17.6627ZM21.6502 17.0616L22.1232 16.8935L22.1231 16.8935L21.6502 17.0616ZM20.6248 26.293L21.0492 26.561L21.0492 26.561L20.6248 26.293ZM21.564 24.4177L22.0329 24.5969L22.0329 24.5969L21.564 24.4177ZM21.2925 23.81L21.1132 24.2789H21.1132L21.2925 23.81ZM20.6848 24.0816L20.216 23.9023L20.216 23.9023L20.6848 24.0816ZM19.829 25.7903L19.4047 25.5222L19.4047 25.5222L19.829 25.7903ZM19.9756 26.4395L20.2437 26.0151L20.2436 26.0151L19.9756 26.4395ZM14.0247 26.4394L14.2927 26.8638L14.2928 26.8638L14.0247 26.4394ZM14.1712 25.7903L13.7468 26.0583L13.7469 26.0584L14.1712 25.7903ZM13.3154 24.0816L12.8465 24.2608L12.8465 24.2608L13.3154 24.0816ZM12.7078 23.81L12.5287 23.3411L12.5286 23.3411L12.7078 23.81ZM12.4362 24.4176L11.9673 24.5968L11.9674 24.5969L12.4362 24.4176ZM13.3755 26.2929L12.9511 26.561L12.9512 26.5612L13.3755 26.2929ZM13.8775 15.0229L14.1345 14.5918L14.1345 14.5918L13.8775 15.0229ZM13.2323 15.1861L12.8012 14.929L12.8011 14.9291L13.2323 15.1861ZM14.0407 15.6681L13.6096 15.4109L13.6096 15.411L14.0407 15.6681ZM13.2369 17.3767L12.7639 17.2086L12.7639 17.2086L13.2369 17.3767ZM12.6359 17.6625L12.4677 18.1355L12.4679 18.1356L12.6359 17.6625ZM12.3501 17.0615L11.8771 16.8933L11.8771 16.8934L12.3501 17.0615ZM28.1616 11.3937C28.0998 8.39388 26.8681 5.61121 24.68 3.5417L23.9901 4.27107C25.9833 6.15616 27.1017 8.68367 27.1579 11.4143L28.1616 11.3937ZM33.502 20.6229C33.5023 16.4982 31.248 12.892 27.9104 10.9691L27.4092 11.8389C30.4496 13.5906 32.4983 16.8728 32.498 20.6228L33.502 20.6229ZM22.3689 31.7559C28.5081 31.7559 33.502 26.7621 33.502 20.6228H32.498C32.498 26.2076 27.9537 30.752 22.3689 30.752V31.7559ZM16.7457 30.2349C18.4351 31.2268 20.3638 31.7559 22.3689 31.7559V30.752C20.542 30.752 18.7888 30.2703 17.254 29.3692L16.7457 30.2349ZM11.6308 31.7559C13.6359 31.7559 15.5646 31.2268 17.254 30.2349L16.7457 29.3692C15.2108 30.2703 13.4577 30.752 11.6308 30.752V31.7559ZM6.50269 30.5063C8.07613 31.3242 9.84879 31.7559 11.6308 31.7559V30.752C10.009 30.752 8.39529 30.3587 6.96572 29.6155L6.50269 30.5063ZM6.08827 29.1948C5.84056 29.6715 6.02619 30.2585 6.50262 30.5063L6.96579 29.6156C6.98104 29.6235 6.98709 29.6424 6.97907 29.6578L6.08827 29.1948ZM7.39986 28.7804C6.92316 28.5326 6.33592 28.7183 6.08827 29.1948L6.97907 29.6578C6.97111 29.6731 6.95222 29.6792 6.9367 29.6711L7.39986 28.7804ZM11.6308 29.8108C10.1373 29.8108 8.71539 29.4643 7.39979 28.7804L6.93677 29.6712C8.39629 30.4298 9.97714 30.8148 11.6308 30.8148V29.8108ZM15.8786 28.7738C14.5832 29.451 13.1347 29.8108 11.6308 29.8108V30.8148C13.2962 30.8148 14.9043 30.4159 16.3437 29.6635L15.8786 28.7738ZM14.5481 28.5455C14.9467 28.9391 15.3703 29.2989 15.8149 29.6239L16.4073 28.8134C16.0025 28.5175 15.6168 28.1898 15.2534 27.8311L14.5481 28.5455ZM14.5393 27.1701C14.1618 27.5524 14.166 28.1682 14.5481 28.5455L15.2534 27.8311C15.2657 27.8432 15.2659 27.8631 15.2537 27.8755L14.5393 27.1701ZM15.9147 27.1614C15.5324 26.7839 14.9166 26.788 14.5393 27.1701L15.2537 27.8755C15.2415 27.8878 15.2217 27.888 15.2093 27.8757L15.9147 27.1614ZM17.2788 28.2742C16.7949 27.9507 16.338 27.5792 15.9146 27.1613L15.2093 27.8758C15.6781 28.3385 16.1844 28.7502 16.721 29.1088L17.2788 28.2742ZM18.0852 27.1613C17.6618 27.5793 17.205 27.9508 16.721 28.2741L17.2788 29.1089C17.8155 28.7503 18.3218 28.3385 18.7905 27.8758L18.0852 27.1613ZM19.4606 27.1702C19.0832 26.7879 18.4673 26.784 18.0852 27.1614L18.7905 27.8757C18.7782 27.8879 18.7583 27.8878 18.7461 27.8754L19.4606 27.1702ZM19.4517 28.5455C19.834 28.1681 19.8379 27.5523 19.4605 27.1701L18.7462 27.8755C18.7339 27.8631 18.7341 27.8432 18.7464 27.831L19.4517 28.5455ZM18.1849 29.6238C18.6295 29.2988 19.053 28.939 19.4517 28.5455L18.7465 27.831C18.383 28.1897 17.9972 28.5175 17.5924 28.8134L18.1849 29.6238ZM22.369 29.8108C20.8652 29.8108 19.4167 29.4509 18.1212 28.7738L17.6562 29.6635C19.0956 30.4158 20.7037 30.8148 22.369 30.8148V29.8108ZM31.557 20.6228C31.557 25.6887 27.4348 29.8108 22.369 29.8108V30.8148C27.9893 30.8148 32.5609 26.2431 32.5609 20.6228H31.557ZM27.3547 12.9089C29.8832 14.5491 31.557 17.3947 31.557 20.6228H32.5609C32.5609 17.0392 30.7017 13.8834 27.901 12.0667L27.3547 12.9089ZM22.5062 21.322C25.6347 19.548 27.8258 16.3016 28.1282 12.5279L27.1275 12.4477C26.8527 15.8774 24.8607 18.8328 22.011 20.4487L22.5062 21.322ZM22.5867 22.6104C22.6883 22.0472 22.7463 21.4724 22.7604 20.8977L21.7568 20.8731C21.7439 21.397 21.691 21.9204 21.5987 22.4323L22.5867 22.6104ZM21.6302 23.4105C22.0921 23.4105 22.5018 23.0812 22.5867 22.6104L21.5987 22.4323C21.6 22.4251 21.6045 22.418 21.6098 22.4136C21.6144 22.4097 21.6214 22.4066 21.6302 22.4066V23.4105ZM21.4572 23.395C21.5142 23.4052 21.572 23.4105 21.6302 23.4105V22.4066C21.6328 22.4066 21.6345 22.4068 21.6351 22.4069L21.4572 23.395ZM20.6725 22.2653C20.5772 22.7938 20.9285 23.2998 21.4572 23.395L21.6351 22.4069C21.6523 22.41 21.6636 22.4264 21.6605 22.4435L20.6725 22.2653ZM20.7913 21.3318C20.7672 21.6463 20.7279 21.9585 20.6726 22.2652L21.6605 22.4435C21.7222 22.1015 21.7657 21.7553 21.7923 21.4083L20.7913 21.3318ZM17.0314 22.7641C18.6168 22.7641 20.1264 22.4301 21.4936 21.8297L21.0899 20.9105C19.847 21.4563 18.4746 21.7602 17.0314 21.7602V22.7641ZM12.5012 21.7998C13.8863 22.4192 15.4198 22.7641 17.0314 22.7641V21.7602C15.5642 21.7602 14.1701 21.4464 12.911 20.8834L12.5012 21.7998ZM13.3275 22.2653C13.2706 21.9496 13.2305 21.6283 13.2067 21.3048L12.2055 21.3784C12.2318 21.7356 12.2761 22.0918 12.3395 22.4435L13.3275 22.2653ZM12.543 23.395C13.0716 23.2996 13.4228 22.7939 13.3275 22.2653L12.3395 22.4435C12.3365 22.4264 12.3478 22.41 12.3649 22.407L12.543 23.395ZM12.3699 23.4105C12.4279 23.4105 12.4859 23.4053 12.543 23.3949L12.3648 22.407C12.3656 22.4068 12.3673 22.4066 12.3699 22.4066V23.4105ZM11.4133 22.6104C11.4982 23.0812 11.908 23.4105 12.3699 23.4105V22.4066C12.3786 22.4066 12.3857 22.4097 12.3903 22.4136C12.3956 22.418 12.4 22.4251 12.4013 22.4323L11.4133 22.6104ZM11.2387 20.8603C11.2512 21.4475 11.3096 22.0351 11.4133 22.6104L12.4013 22.4323C12.307 21.9093 12.2538 21.3742 12.2424 20.8389L11.2387 20.8603ZM5.93108 12.4876C6.21897 16.2518 8.38581 19.496 11.49 21.2845L11.9912 20.4147C9.16358 18.7855 7.19373 15.8322 6.93208 12.4111L5.93108 12.4876ZM2.44315 20.6228C2.44315 17.3707 4.14177 14.5067 6.70169 12.8724L6.16148 12.0262C3.3259 13.8365 1.43922 17.0126 1.43922 20.6228H2.44315ZM5.83886 27.7546C3.68014 25.999 2.44315 23.4005 2.44315 20.6228H1.43922C1.43922 23.7032 2.8127 26.5875 5.20544 28.5334L5.83886 27.7546ZM5.97979 29.1227C6.31866 28.706 6.2556 28.0935 5.83887 27.7546L5.20542 28.5334C5.19203 28.5225 5.18996 28.5028 5.20092 28.4893L5.97979 29.1227ZM5.22498 29.4817C5.50619 29.4817 5.78743 29.3593 5.97985 29.1227L5.20086 28.4894C5.20344 28.4862 5.20758 28.4828 5.21242 28.4806C5.21678 28.4786 5.221 28.4777 5.22498 28.4777V29.4817ZM4.61165 29.2637C4.79153 29.4099 5.00938 29.4818 5.22529 29.4817L5.22468 28.4777C5.22796 28.4777 5.23164 28.4783 5.2355 28.4796C5.23956 28.481 5.24286 28.483 5.24499 28.4848L4.61165 29.2637ZM0.498039 20.6228C0.498039 23.9877 1.99806 27.1382 4.61161 29.2637L5.24503 28.4848C2.86553 26.5496 1.50196 23.6851 1.50196 20.6228H0.498039ZM6.15612 10.932C2.78226 12.8451 0.498039 16.471 0.498039 20.6228H1.50196C1.50196 16.8482 3.57794 13.548 6.65133 11.8052L6.15612 10.932ZM17.0315 0.498039C10.9841 0.498039 6.04846 5.3435 5.90191 11.3564L6.90554 11.3808C7.03884 5.91124 11.5305 1.50196 17.0315 1.50196V0.498039ZM22.9174 2.18044C21.1533 1.07963 19.1178 0.498039 17.0315 0.498039V1.50196C18.9306 1.50196 20.7819 2.03122 22.3859 3.03214L22.9174 2.18044ZM23.2276 3.5204C23.5119 3.06476 23.3731 2.46473 22.9173 2.1804L22.386 3.03218C22.3712 3.02293 22.3668 3.00354 22.3759 2.98889L23.2276 3.5204ZM21.8877 3.83062C22.3432 4.11476 22.9433 3.97622 23.2276 3.52031L22.3759 2.98897C22.3852 2.97404 22.4045 2.96978 22.4191 2.97884L21.8877 3.83062ZM17.0315 2.44308C18.7544 2.44308 20.4333 2.92305 21.8877 3.83058L22.4191 2.97888C20.8047 1.97142 18.9414 1.43916 17.0315 1.43916V2.44308ZM7.87069 10.9224C8.23345 6.18637 12.2044 2.44308 17.0315 2.44308V1.43916C11.6753 1.43916 7.27219 5.59092 6.8697 10.8457L7.87069 10.9224ZM11.6311 9.48975C10.0454 9.48975 8.53563 9.82391 7.16834 10.4244L7.57205 11.3436C8.81511 10.7976 10.1877 10.4937 11.6311 10.4937V9.48975ZM17.2545 11.0067C15.5686 10.0161 13.6438 9.48975 11.6311 9.48975V10.4937C13.4667 10.4937 15.2156 10.9731 16.7459 11.8723L17.2545 11.0067ZM22.3692 9.48975C20.3564 9.48975 18.4317 10.0161 16.7458 11.0067L17.2545 11.8723C18.7846 10.9731 20.5335 10.4937 22.3692 10.4937V9.48975ZM26.9002 10.4544C25.5149 9.83474 23.9811 9.48975 22.3692 9.48975V10.4937C23.8367 10.4937 25.231 10.8075 26.4903 11.3708L26.9002 10.4544ZM23.3434 4.95487C25.0332 6.55314 26.0293 8.65943 26.1946 10.9487L27.1959 10.8764C27.0125 8.33579 25.9045 5.99542 24.0332 4.2255L23.3434 4.95487ZM23.305 3.58003C22.9361 3.97027 22.9532 4.58567 23.3433 4.9548L24.0333 4.22556C24.0458 4.23742 24.0463 4.25724 24.0345 4.26976L23.305 3.58003ZM24.6799 3.54165C24.2897 3.17262 23.6741 3.1897 23.305 3.58003L24.0345 4.26975C24.0225 4.28248 24.0026 4.28287 23.9902 4.27112L24.6799 3.54165ZM22.7312 19.7663C22.7084 19.4695 22.6741 19.1732 22.6279 18.8796L21.6362 19.0358C21.6781 19.3024 21.7094 19.5722 21.7302 19.8431L22.7312 19.7663ZM26.2135 11.9468C26.1076 15.0677 24.4375 17.8005 21.9606 19.3816L22.5008 20.2278C25.2446 18.4764 27.0992 15.4461 27.2168 11.9808L26.2135 11.9468ZM22.3692 11.4348C23.8504 11.4348 25.2496 11.7874 26.4892 12.4121L26.941 11.5156C25.565 10.8221 24.0115 10.4309 22.3692 10.4309V11.4348ZM18.1207 12.4683C19.4122 11.7929 20.858 11.4348 22.3692 11.4348V10.4309C20.6977 10.4309 19.092 10.8274 17.6555 11.5787L18.1207 12.4683ZM19.6928 12.9446C19.2247 12.4532 18.72 12.0104 18.1846 11.6185L17.5916 12.4285C18.0788 12.7851 18.5387 13.1886 18.966 13.6371L19.6928 12.9446ZM19.6595 14.3196C20.0484 13.9491 20.0633 13.3335 19.6929 12.9446L18.9659 13.637C18.9541 13.6246 18.9545 13.6047 18.967 13.5927L19.6595 14.3196ZM18.2844 14.2862C18.6549 14.6753 19.2707 14.6902 19.6596 14.3196L18.967 13.5928C18.9795 13.5808 18.9994 13.5813 19.0114 13.5939L18.2844 14.2862ZM16.721 12.9686C17.2813 13.3436 17.8056 13.7836 18.2845 14.2863L19.0113 13.5938C18.4817 13.0379 17.9009 12.5503 17.2793 12.1343L16.721 12.9686ZM15.7158 14.2863C16.1947 13.7836 16.719 13.3436 17.2793 12.9686L16.721 12.1343C16.0994 12.5502 15.5186 13.0379 14.9889 13.5938L15.7158 14.2863ZM14.3409 14.3197C14.7298 14.6901 15.3452 14.6752 15.7158 14.2863L14.989 13.5938C15.0009 13.5813 15.0207 13.5808 15.0332 13.5927L14.3409 14.3197ZM14.3075 12.9446C13.937 13.3335 13.9519 13.9491 14.3408 14.3196L15.0333 13.5927C15.0458 13.6047 15.0463 13.6245 15.0344 13.6371L14.3075 12.9446ZM15.8156 11.6185C15.2803 12.0105 14.7756 12.4532 14.3075 12.9446L15.0343 13.6371C15.4616 13.1886 15.9216 12.7852 16.4087 12.4285L15.8156 11.6185ZM11.6311 11.4348C13.1423 11.4348 14.5881 11.7929 15.8796 12.4683L16.3448 11.5787C14.9083 10.8274 13.3026 10.4309 11.6311 10.4309V11.4348ZM7.56943 12.383C8.79461 11.7765 10.1731 11.4348 11.6311 11.4348V10.4309C10.0145 10.4309 8.48397 10.8101 7.12403 11.4833L7.56943 12.383ZM12.0458 19.3449C9.59241 17.7535 7.94419 15.0269 7.84845 11.9177L6.84501 11.9486C6.95131 15.4008 8.78184 18.4243 11.4995 20.1872L12.0458 19.3449ZM11.3724 18.8796C11.3283 19.16 11.295 19.4427 11.2723 19.7258L12.273 19.8063C12.2938 19.5477 12.324 19.2902 12.3641 19.0358L11.3724 18.8796ZM12.4847 18.0702C11.9532 17.9861 11.4557 18.3496 11.3724 18.8798L12.3641 19.0356C12.3615 19.0523 12.3455 19.0646 12.3278 19.0618L12.4847 18.0702ZM13.2938 19.182C13.3773 18.6514 13.0149 18.1535 12.4842 18.0701L12.3283 19.0619C12.3111 19.0591 12.2994 19.043 12.3021 19.0259L13.2938 19.182ZM13.1869 20.3071C13.1999 19.9301 13.2355 19.5529 13.2938 19.1819L12.3021 19.026C12.2373 19.4379 12.1979 19.8557 12.1836 20.2727L13.1869 20.3071ZM17.0315 20.8191C15.5502 20.8191 14.1509 20.4664 12.9112 19.8417L12.4594 20.7382C13.8355 21.4317 15.389 21.823 17.0315 21.823V20.8191ZM21.0932 19.8708C19.868 20.4773 18.4895 20.8191 17.0315 20.8191V21.823C18.6481 21.823 20.1786 21.4438 21.5386 20.7705L21.0932 19.8708ZM20.7064 19.182C20.7663 19.5623 20.8021 19.9495 20.8142 20.3363L21.8176 20.305C21.8043 19.8774 21.7647 19.4486 21.6982 19.0259L20.7064 19.182ZM21.516 18.0701C20.9854 18.1536 20.6229 18.6513 20.7064 19.182L21.6982 19.0259C21.7009 19.0431 21.6891 19.0592 21.6721 19.0618L21.516 18.0701ZM22.6279 18.8797C22.5444 18.3493 22.0462 17.9861 21.5155 18.0702L21.6725 19.0618C21.6544 19.0646 21.6388 19.0526 21.6361 19.0357L22.6279 18.8797ZM20.38 15.4541C20.3648 15.4631 20.3456 15.458 20.3369 15.4433L21.1991 14.9291C20.9241 14.468 20.3272 14.3165 19.8656 14.592L20.38 15.4541ZM20.3907 15.4112C20.3996 15.426 20.3947 15.4453 20.3799 15.4541L19.8656 14.5919C19.4043 14.867 19.2534 15.4639 19.5284 15.9253L20.3907 15.4112ZM21.2363 17.2087C21.0146 16.5851 20.7301 15.9804 20.3907 15.4112L19.5284 15.9253C19.8343 16.4383 20.0907 16.9834 20.2904 17.545L21.2363 17.2087ZM21.2068 17.188C21.2139 17.188 21.2198 17.1901 21.2243 17.1933C21.2296 17.197 21.2342 17.2029 21.2363 17.2087L20.2904 17.545C20.4322 17.9441 20.8074 18.1919 21.2068 18.1919V17.188ZM21.1963 17.1897C21.199 17.1887 21.2027 17.188 21.2068 17.188V18.1919C21.3155 18.1919 21.4256 18.1736 21.5325 18.1356L21.1963 17.1897ZM21.1772 17.2297C21.1714 17.2134 21.18 17.1955 21.1962 17.1897L21.5326 18.1356C22.0386 17.9557 22.303 17.3997 22.1232 16.8935L21.1772 17.2297ZM20.3368 15.4433C20.6742 16.009 20.957 16.6102 21.1772 17.2298L22.1231 16.8935C21.8808 16.212 21.57 15.5512 21.1991 14.9291L20.3368 15.4433ZM20.2004 26.0249C20.2029 26.0209 20.2073 26.0167 20.2124 26.0139C20.2169 26.0115 20.2216 26.0103 20.2265 26.0103V27.0143C20.5476 27.0143 20.8639 26.8544 21.0492 26.561L20.2004 26.0249ZM21.0952 24.2384C20.8574 24.8603 20.5563 25.4614 20.2004 26.0249L21.0492 26.561C21.4405 25.9415 21.7714 25.2808 22.0329 24.5969L21.0952 24.2384ZM21.1132 24.2789C21.0971 24.2727 21.089 24.2546 21.0952 24.2384L22.0329 24.5969C22.2247 24.0952 21.9734 23.5329 21.4717 23.3412L21.1132 24.2789ZM21.1537 24.2609C21.1476 24.2769 21.1295 24.2851 21.1132 24.2789L21.4717 23.3412C20.97 23.1494 20.4078 23.4006 20.216 23.9023L21.1537 24.2609ZM20.2534 26.0584C20.6117 25.4913 20.9145 24.8866 21.1537 24.2609L20.216 23.9023C20.0004 24.4661 19.7275 25.0113 19.4047 25.5222L20.2534 26.0584ZM20.2436 26.0151C20.2583 26.0244 20.2626 26.0438 20.2534 26.0584L19.4047 25.5222C19.1179 25.9763 19.2533 26.577 19.7075 26.8639L20.2436 26.0151ZM20.2265 26.0103C20.2294 26.0103 20.2325 26.0108 20.2358 26.0117C20.2391 26.0126 20.2418 26.0139 20.2437 26.0151L19.7074 26.8638C19.868 26.9653 20.0484 27.0143 20.2265 27.0143V26.0103ZM13.7567 26.015C13.7586 26.0138 13.7613 26.0125 13.7646 26.0116C13.7678 26.0107 13.7709 26.0103 13.7738 26.0103V27.0142C13.9519 27.0142 14.1322 26.9652 14.2927 26.8638L13.7567 26.015ZM13.7469 26.0584C13.7376 26.0437 13.742 26.0243 13.7566 26.015L14.2928 26.8638C14.7469 26.577 14.8826 25.9763 14.5955 25.5221L13.7469 26.0584ZM12.8465 24.2608C13.0858 24.8867 13.3887 25.4913 13.7468 26.0583L14.5956 25.5222C14.2728 25.0112 13.9998 24.4661 13.7843 23.9023L12.8465 24.2608ZM12.8869 24.2789C12.8709 24.285 12.8528 24.2771 12.8465 24.2608L13.7843 23.9024C13.5925 23.4004 13.0302 23.1495 12.5287 23.3411L12.8869 24.2789ZM12.9051 24.2384C12.9113 24.2546 12.9032 24.2727 12.887 24.2789L12.5286 23.3411C12.0269 23.5329 11.7756 24.0951 11.9673 24.5968L12.9051 24.2384ZM13.7998 26.0248C13.4439 25.4614 13.1428 24.8602 12.9051 24.2384L11.9674 24.5969C12.2288 25.2808 12.5597 25.9415 12.9511 26.561L13.7998 26.0248ZM13.7738 26.0103C13.7787 26.0103 13.7833 26.0114 13.7878 26.0138C13.7929 26.0166 13.7972 26.0207 13.7997 26.0246L12.9512 26.5612C13.1366 26.8543 13.4527 27.0142 13.7738 27.0142V26.0103ZM14.1345 14.5918C13.6733 14.3169 13.0763 14.4676 12.8012 14.929L13.6634 15.4433C13.6545 15.4582 13.6353 15.4629 13.6205 15.4541L14.1345 14.5918ZM14.4718 15.9253C14.747 15.4639 14.5959 14.8669 14.1345 14.5918L13.6204 15.4541C13.6057 15.4453 13.6006 15.4259 13.6096 15.4109L14.4718 15.9253ZM13.7099 17.5448C13.9095 16.9832 14.1659 16.4381 14.4718 15.9252L13.6096 15.411C13.2701 15.9803 12.9856 16.585 12.7639 17.2086L13.7099 17.5448ZM12.7935 18.1918C13.1926 18.1918 13.568 17.9441 13.7099 17.5448L12.7639 17.2086C12.766 17.2028 12.7706 17.1968 12.776 17.1931C12.7805 17.19 12.7863 17.1879 12.7935 17.1879V18.1918ZM12.4679 18.1356C12.5747 18.1734 12.6846 18.1918 12.7935 18.1918V17.1879C12.7977 17.1879 12.8014 17.1886 12.8038 17.1895L12.4679 18.1356ZM11.8771 16.8934C11.6972 17.3995 11.9617 17.9555 12.4677 18.1355L12.8041 17.1896C12.8203 17.1954 12.8288 17.2132 12.823 17.2296L11.8771 16.8934ZM12.8011 14.9291C12.4302 15.5511 12.1194 16.2119 11.8771 16.8933L12.823 17.2296C13.0433 16.6101 13.3261 16.0089 13.6634 15.4432L12.8011 14.9291Z" fill="black"/>
</g>
</svg>
