<svg width="32" height="32" viewBox="0 0 32 32" fill="none" xmlns="http://www.w3.org/2000/svg">
<g opacity="0.2" clip-path="url(#clip0)">
<path d="M23.3657 19.2683C23.2754 18.967 22.9038 18.8262 22.5222 18.8262C22.1506 18.8262 21.7791 18.967 21.6887 19.2683L19.7505 25.5847C19.7405 25.625 19.7305 25.665 19.7305 25.6851C19.7305 26.0066 20.2024 26.2273 20.554 26.2273C20.7749 26.2273 20.9456 26.1572 20.9958 25.9663L21.3772 24.6306H23.677L24.0588 25.9663C24.1089 26.1572 24.2795 26.2273 24.5005 26.2273C24.8521 26.2273 25.324 25.9966 25.324 25.6851C25.324 25.655 25.314 25.6248 25.304 25.5847L23.3657 19.2683ZM21.6484 23.6062L22.522 20.5234L23.396 23.6062H21.6484Z" fill="black"/>
<path d="M28.5522 13.0542H18.9456V8.95117L22.0676 6.72119C22.314 6.54517 22.4602 6.26123 22.4602 5.9585C22.4602 5.65552 22.314 5.37158 22.0676 5.19556L18.908 2.93872C18.6611 1.27808 17.2258 0 15.4978 0H3.448C1.54663 0 0 1.54663 0 3.448V15.498C0 17.3992 1.54663 18.9458 3.448 18.9458H13.0544V23.0488L9.93237 25.2788C9.68604 25.4548 9.53979 25.739 9.53979 26.0417C9.53979 26.3445 9.68604 26.6287 9.93237 26.8044L13.092 29.0613C13.3389 30.7219 14.7742 32 16.5022 32H28.5522C30.4534 32 32 30.4531 32 28.552V16.5022C32 14.6008 30.4534 13.0542 28.5522 13.0542ZM3.448 17.0708C2.58057 17.0708 1.875 16.3652 1.875 15.4978V3.44775C1.875 2.58057 2.58057 1.875 3.448 1.875H15.4978C16.365 1.875 17.0706 2.58057 17.0706 3.44775C17.0706 3.75073 17.2168 4.03491 17.4631 4.21069L19.9097 5.95825L17.4631 7.70581C17.2168 7.88184 17.0706 8.16602 17.0706 8.46875V13.0542H16.5022C14.6011 13.0542 13.0544 14.6008 13.0544 16.502V17.0708H3.448ZM30.125 28.552C30.125 29.4194 29.4194 30.125 28.5522 30.125H16.5022C15.635 30.125 14.9294 29.4194 14.9294 28.552C14.9294 28.2493 14.7832 27.9651 14.5369 27.7893L12.0903 26.0417L14.5369 24.2942C14.7832 24.1182 14.9294 23.834 14.9294 23.5312V16.5022C14.9294 15.6348 15.635 14.9292 16.5022 14.9292H18.0056H18.0081H18.0105H28.5522C29.4194 14.9292 30.125 15.6348 30.125 16.5022V28.552Z" fill="black"/>
<path d="M12.3533 8.64258C12.645 8.64258 12.8818 8.40576 12.8818 8.11377C12.8818 7.82178 12.645 7.58496 12.3533 7.58496H10.0015V6.30127C10.0015 6.00928 9.76465 5.77246 9.47266 5.77246C9.18091 5.77246 8.94409 6.00928 8.94409 6.30127V7.58496H6.59229C6.30054 7.58496 6.06372 7.82178 6.06372 8.11377C6.06372 8.40576 6.30054 8.64258 6.59229 8.64258H7.32104C7.4375 9.75903 7.91895 10.7681 8.64307 11.5496C8.04272 11.9089 7.34155 12.1165 6.59229 12.1165C6.30054 12.1165 6.06372 12.353 6.06372 12.645C6.06372 12.937 6.30054 13.1738 6.59229 13.1738C7.66211 13.1738 8.65454 12.8394 9.47266 12.2705C10.291 12.8394 11.2834 13.1738 12.3533 13.1738C12.645 13.1738 12.8818 12.937 12.8818 12.645C12.8818 12.353 12.645 12.1165 12.3533 12.1165C11.604 12.1165 10.9028 11.9094 10.3025 11.5496C11.0266 10.7681 11.5081 9.75903 11.6245 8.64258H12.3533ZM9.47266 10.8889C8.89429 10.2886 8.50146 9.50903 8.38647 8.64258H10.5591C10.4441 9.50903 10.0513 10.2886 9.47266 10.8889Z" fill="black"/>
</g>
<defs>
<clipPath id="clip0">
<rect width="32" height="32" fill="white"/>
</clipPath>
</defs>
</svg>
