<svg width="34" height="34" viewBox="0 0 34 34" fill="none" xmlns="http://www.w3.org/2000/svg">
<g opacity="0.2">
<path fill-rule="evenodd" clip-rule="evenodd" d="M21.2093 1H29.6667C31.504 1 33 2.496 33 4.33331V12.7907C33 14.3933 32.376 15.9 31.2426 17.0334L16.4133 31.8627C15.68 32.596 14.7053 33 13.6693 33C12.628 33 11.6533 32.596 10.92 31.8627L2.13731 23.08C1.404 22.3467 1 21.372 1 20.336C1 19.2947 1.404 18.32 2.13731 17.5867L16.9666 2.75731C18.1 1.624 19.6066 1 21.2093 1ZM30.3014 16.0894C31.1814 15.2094 31.6667 14.0374 31.6667 12.7907H31.6666V4.33331C31.6666 3.23063 30.7693 2.33331 29.6666 2.33331H21.2093C19.9626 2.33331 18.792 2.81869 17.9093 3.7L3.08 18.5294C2.59863 19.0107 2.33331 19.6507 2.33331 20.3307C2.33331 21.016 2.59869 21.656 3.08 22.136L11.864 30.92C12.8307 31.8853 14.512 31.8787 15.4707 30.92L30.3014 16.0894ZM22.3334 8.33331C22.3334 6.496 23.8294 5 25.6667 5C27.504 5 29 6.496 29 8.33331C29 10.1707 27.504 11.6666 25.6667 11.6666C23.8294 11.6666 22.3334 10.1706 22.3334 8.33331ZM23.6667 8.33331C23.6667 9.436 24.564 10.3333 25.6667 10.3333C26.7693 10.3333 27.6667 9.436 27.6667 8.33331C27.6667 7.23063 26.7694 6.33331 25.6667 6.33331C24.564 6.33331 23.6667 7.23063 23.6667 8.33331Z" fill="black"/>
<path d="M31.2426 17.0334L30.8891 16.6798L30.8891 16.6798L31.2426 17.0334ZM16.4133 31.8627L16.7669 32.2162L16.7669 32.2162L16.4133 31.8627ZM2.13731 17.5867L2.49087 17.9402L2.49087 17.9402L2.13731 17.5867ZM16.9666 2.75731L16.6131 2.40375L16.6131 2.40376L16.9666 2.75731ZM31.6667 12.7907H32.1667V12.2907H31.6667V12.7907ZM30.3014 16.0894L30.6549 16.4429L30.6549 16.4429L30.3014 16.0894ZM31.6666 12.7907H31.1666V13.2907H31.6666V12.7907ZM17.9093 3.7L17.556 3.34617L17.5558 3.34645L17.9093 3.7ZM3.08 18.5294L3.43353 18.883L3.43355 18.8829L3.08 18.5294ZM3.08 22.136L3.43355 21.7824L3.43307 21.782L3.08 22.136ZM11.864 30.92L11.5104 31.2736L11.5107 31.2738L11.864 30.92ZM15.4707 30.92L15.1171 30.5664L15.1171 30.5664L15.4707 30.92ZM29.6667 0.5H21.2093V1.5H29.6667V0.5ZM33.5 4.33331C33.5 2.21986 31.7801 0.5 29.6667 0.5V1.5C31.2279 1.5 32.5 2.77214 32.5 4.33331H33.5ZM33.5 12.7907V4.33331H32.5V12.7907H33.5ZM31.5962 17.3869C32.8233 16.1598 33.5 14.5259 33.5 12.7907H32.5C32.5 14.2607 31.9287 15.6402 30.8891 16.6798L31.5962 17.3869ZM16.7669 32.2162L31.5962 17.3869L30.8891 16.6798L16.0598 31.5091L16.7669 32.2162ZM13.6693 33.5C14.8381 33.5 15.9399 33.0432 16.7669 32.2162L16.0598 31.5091C15.4201 32.1488 14.5725 32.5 13.6693 32.5V33.5ZM10.5664 32.2162C11.3937 33.0435 12.4956 33.5 13.6693 33.5V32.5C12.7604 32.5 11.913 32.1485 11.2736 31.5091L10.5664 32.2162ZM1.78376 23.4336L10.5664 32.2162L11.2736 31.5091L2.49087 22.7264L1.78376 23.4336ZM0.5 20.336C0.5 21.5048 0.956793 22.6066 1.78376 23.4336L2.49087 22.7264C1.85121 22.0868 1.5 21.2392 1.5 20.336H0.5ZM1.78376 17.2331C0.956535 18.0604 0.5 19.1623 0.5 20.336H1.5C1.5 19.4271 1.85146 18.5796 2.49087 17.9402L1.78376 17.2331ZM16.6131 2.40376L1.78376 17.2331L2.49087 17.9402L17.3202 3.11087L16.6131 2.40376ZM21.2093 0.5C19.474 0.5 17.8402 1.17667 16.6131 2.40375L17.3202 3.11088C18.3598 2.07133 19.7392 1.5 21.2093 1.5V0.5ZM31.1667 12.7907C31.1667 13.9049 30.7339 14.9497 29.9478 15.7358L30.6549 16.4429C31.6288 15.469 32.1667 14.1698 32.1667 12.7907H31.1667ZM31.6666 13.2907H31.6667V12.2907H31.6666V13.2907ZM31.1666 4.33331V12.7907H32.1666V4.33331H31.1666ZM29.6666 2.83331C30.4932 2.83331 31.1666 3.50677 31.1666 4.33331H32.1666C32.1666 2.95448 31.0455 1.83331 29.6666 1.83331V2.83331ZM21.2093 2.83331H29.6666V1.83331H21.2093V2.83331ZM18.2626 4.05383C19.0518 3.26589 20.0954 2.83331 21.2093 2.83331V1.83331C19.8298 1.83331 18.5322 2.37148 17.556 3.34617L18.2626 4.05383ZM3.43355 18.8829L18.2629 4.05355L17.5558 3.34645L2.72645 18.1758L3.43355 18.8829ZM2.83331 20.3307C2.83331 19.7835 3.04582 19.2706 3.43353 18.883L2.72647 18.1758C2.15143 18.7508 1.83331 19.5179 1.83331 20.3307H2.83331ZM3.43307 21.782C3.04632 21.3963 2.83331 20.8839 2.83331 20.3307H1.83331C1.83331 21.1481 2.15106 21.9157 2.72693 22.49L3.43307 21.782ZM12.2176 30.5664L3.43355 21.7824L2.72645 22.4896L11.5104 31.2736L12.2176 30.5664ZM15.1171 30.5664C14.353 31.3306 12.9881 31.3359 12.2173 30.5662L11.5107 31.2738C12.6733 32.4347 14.671 32.4268 15.8242 31.2736L15.1171 30.5664ZM29.9478 15.7358L15.1171 30.5664L15.8242 31.2736L30.6549 16.4429L29.9478 15.7358ZM25.6667 4.5C23.5532 4.5 21.8334 6.21986 21.8334 8.33331H22.8334C22.8334 6.77214 24.1055 5.5 25.6667 5.5V4.5ZM29.5 8.33331C29.5 6.21986 27.7801 4.5 25.6667 4.5V5.5C27.2279 5.5 28.5 6.77214 28.5 8.33331H29.5ZM25.6667 12.1666C27.7801 12.1666 29.5 10.4468 29.5 8.33331H28.5C28.5 9.89454 27.2279 11.1666 25.6667 11.1666V12.1666ZM21.8334 8.33331C21.8334 10.4468 23.5532 12.1666 25.6667 12.1666V11.1666C24.1055 11.1666 22.8334 9.89448 22.8334 8.33331H21.8334ZM25.6667 9.83331C24.8401 9.83331 24.1667 9.15986 24.1667 8.33331H23.1667C23.1667 9.71214 24.2879 10.8333 25.6667 10.8333V9.83331ZM27.1667 8.33331C27.1667 9.15985 26.4932 9.83331 25.6667 9.83331V10.8333C27.0454 10.8333 28.1667 9.71215 28.1667 8.33331H27.1667ZM25.6667 6.83331C26.4932 6.83331 27.1667 7.50677 27.1667 8.33331H28.1667C28.1667 6.95448 27.0455 5.83331 25.6667 5.83331V6.83331ZM24.1667 8.33331C24.1667 7.50677 24.8401 6.83331 25.6667 6.83331V5.83331C24.2879 5.83331 23.1667 6.95448 23.1667 8.33331H24.1667Z" fill="black"/>
</g>
</svg>
