<svg width="24" height="24" viewBox="0 0 24 24" fill="none" xmlns="http://www.w3.org/2000/svg">
<g clip-path="url(#clip0)">
<path d="M21.5 13.5C22.878 13.5 24 12.378 24 11L24 3C24 1.62202 22.878 0.500015 21.5 0.500015L18.5 0.500015C17.937 0.500015 17.419 0.69 17 1.00603L17 13.5L21.5 13.5Z" fill="#FE6681"/>
<path d="M2.15574e-06 9.75001C2.1032e-06 10.351 0.237987 10.911 0.651003 11.324C0.183987 11.835 -0.053998 12.52 0.0110168 13.233C0.128017 14.504 1.27303 15.5 2.619 15.5L8.79601 15.5C8.49001 16.429 8.00002 18.132 8.00002 19.5C8.00002 21.669 9.84301 23.5 11 23.5C12.039 23.5 12.781 22.915 12.813 22.891C12.931 22.796 13 22.652 13 22.5L13 19.109L15.88 12.87L16 12.809L16 2.09101C15.186 1.70702 14.156 1.50002 13.5 1.50002L4.32099 1.50001C3.23199 1.50001 2.27898 2.23403 2.05501 3.247C1.94002 3.76801 2.007 4.29302 2.23599 4.74901C1.497 5.12101 0.999988 5.88203 0.999988 6.75001C0.999988 7.10401 1.08099 7.44301 1.23497 7.75C0.495987 8.122 2.23153e-06 8.88301 2.15574e-06 9.75001Z" fill="#FE6681"/>
</g>
<defs>
<clipPath id="clip0">
<rect width="24" height="24" fill="white" transform="translate(24 24) rotate(-180)"/>
</clipPath>
</defs>
</svg>
