<svg width="46" height="46" viewBox="0 0 46 46" fill="none" xmlns="http://www.w3.org/2000/svg">
<path d="M21.3847 21.376C20.4902 22.2705 20.4902 23.7208 21.3847 24.6153C22.2792 25.5098 23.7295 25.5098 24.624 24.6153C25.5185 23.7208 25.5185 22.2705 24.624 21.376C23.7295 20.4815 22.2792 20.4815 21.3847 21.376Z" fill="#F74EBC"/>
<path d="M12.1344 30.6261L12.1951 30.6867C13.9506 32.4423 16.7969 32.4423 18.5524 30.6867C20.308 28.9312 20.308 26.0849 18.5524 24.3294L17.7465 23.5234L16.1268 21.9038L14.8536 20.6306L14.5899 20.3668L13.3166 19.0936L11.697 17.4739L9.53605 15.313C7.78051 13.5574 4.93421 13.5574 3.17867 15.313C1.42313 17.0685 1.42313 19.9148 3.17867 21.6704L3.2393 21.731L4.5125 23.0042L10.8612 29.3529L12.1344 30.6261Z" fill="#AFDDD2"/>
<path d="M24.2776 27.5084L23.6453 28.1406L23.0044 28.7816L16.647 35.1389L16.0147 35.7712L15.3738 36.4122L15.3218 36.4641C13.5663 38.2197 13.5663 41.066 15.3218 42.8215C17.0774 44.5771 19.9237 44.5771 21.6792 42.8215L21.7312 42.7695L22.3721 42.1286L23.0044 41.4963L29.3618 35.139L30.0027 34.498L30.635 33.8657L30.6956 33.8051C32.4511 32.0496 32.4511 29.2033 30.6956 27.4477C28.9401 25.6922 26.0938 25.6922 24.3382 27.4477L24.2776 27.5084Z" fill="#37BA9A"/>
<path d="M33.8006 15.3086C32.0474 13.5555 29.205 13.5555 27.4519 15.3086C25.6987 17.0618 25.6987 19.9042 27.4519 21.6574L27.5168 21.7223L28.1491 22.3546L28.79 22.9955L35.1474 29.3529L35.7797 29.9852L36.4206 30.6261L36.4769 30.6824C38.23 32.4356 41.0725 32.4356 42.8256 30.6824C44.5788 28.9293 44.5788 26.0868 42.8256 24.3337L42.7693 24.2774L42.1284 23.6365L41.4961 23.0042L35.1387 16.6468L34.4978 16.0059L33.8655 15.3736L33.8006 15.3086Z" fill="#F2D2E5"/>
<path d="M24.2776 3.23932L23.6453 3.87159L23.0044 4.51253L16.6557 10.8612L16.0147 11.5022L15.3825 12.1345L15.3175 12.1994C13.5643 13.9526 13.5643 16.795 15.3175 18.5481C17.0706 20.3013 19.913 20.3013 21.6662 18.5481L21.7312 18.4832L22.3634 17.8509L23.0044 17.2099L29.3531 10.8612L29.994 10.2203L30.6263 9.58802L30.6913 9.52305C32.4444 7.76991 32.4444 4.9275 30.6913 3.17435C28.9381 1.4212 26.0957 1.42121 24.3426 3.17435L24.2776 3.23932Z" fill="#F74EBC"/>
</svg>
