<svg width="84" height="84" viewBox="0 0 84 84" fill="none" xmlns="http://www.w3.org/2000/svg">
<path d="M30.6977 46.134C31.1867 48.9175 35.9494 62.6218 50.1717 73.7655C48.633 74.7265 46.8553 75.0703 45.0503 75.0703C37.7326 75.0703 29.2434 69.699 22.3471 60.7014C17.2667 54.074 14.1922 46.3825 12.651 38.8447L23.2821 42.573L11.7349 32.8387C11.0688 26.2126 11.5445 19.9742 12.8791 15.0282C17.1143 23.5027 24.4537 27.9594 31.6002 32.2976C34.8486 34.2697 38.1512 36.322 41.2692 38.7468L45.6892 52.9189L46.2819 43.236C52.0338 49.2872 56.8343 57.0561 55.4346 65.2488C56.2473 65.8159 59.2265 67.8381 60.3573 68.5504C63.6194 57.6378 57.7533 46.9696 49.7016 38.7442C44.9528 33.892 39.633 30.6624 34.49 27.5393C25.8292 22.2821 18.3512 17.7412 15.7716 6.66127L14.222 0L10.6802 5.84988C2.87312 18.7441 3.93054 45.8323 17.9271 64.0881C25.8727 74.4503 36.0118 80.6374 45.0503 80.6374C49.3481 80.6374 52.4769 79.3026 54.9992 77.0831C63.2358 82.0875 70.6759 83.9278 78.1728 83.9998C70.8442 80.1835 53.662 74.6897 30.6977 46.134Z" fill="#00BC8E"/>
</svg>
