<svg width="82" height="82" viewBox="0 0 82 82" fill="none" xmlns="http://www.w3.org/2000/svg">
<path d="M39.6875 27.875H42.3125V33.125H39.6875V27.875Z" fill="#00BC8E"/>
<path d="M50.9159 29.4082L48.6164 27.8752L50.9159 26.3422L49.459 24.1582L43.8835 27.8752L49.459 31.5922L50.9159 29.4082Z" fill="#00BC8E"/>
<path d="M32.541 31.5922L38.1165 27.8752L32.541 24.1582L31.0841 26.3422L33.3836 27.8752L31.0841 29.4082L32.541 31.5922Z" fill="#00BC8E"/>
<path d="M69.875 39.6875H68.7213C65.1802 39.6875 62.1076 42.0185 61.0668 45.2945C61.0537 45.2919 61.0406 45.2879 61.0274 45.2853L52.5119 43.7825C52.3492 43.3376 52.1536 42.9097 51.9436 42.4923C54.0266 40.1692 55.4716 37.4169 56.1961 34.4375H56.75C59.6454 34.4375 62 32.0829 62 29.1875C62 29.1521 61.9908 29.1192 61.9895 29.0838C66.4402 28.4433 69.875 24.5898 69.875 19.9344C69.875 19.6824 69.9695 19.4553 70.1467 19.2781C71.6639 17.7609 72.5 15.7436 72.5 13.5963C72.5 9.16663 68.8959 5.5625 64.4662 5.5625H63.3125C61.2886 5.5625 59.3448 6.09931 57.5979 7.07188C54.1381 2.94537 48.9511 0.3125 43.1578 0.3125H38.8423C34.1658 0.3125 29.891 2.03581 26.5927 4.86687C24.9691 2.09094 22.0016 0.3125 18.6875 0.3125C13.6213 0.3125 9.5 4.46394 9.5 9.56563C9.5 9.81763 9.4055 10.0447 9.22831 10.2219C7.71106 11.7391 6.875 13.7564 6.875 15.9037C6.875 20.3334 10.4791 23.9375 14.9088 23.9375H16.0625C17.5706 23.9375 19.055 23.6356 20.4423 23.0791C20.4883 23.2931 20.5092 23.5122 20.5617 23.7249L21.1248 25.9784C20.4318 26.8683 20 27.9734 20 29.1875C20 32.0829 22.3546 34.4375 25.25 34.4375H25.8039C26.5284 37.4169 27.9734 40.1692 30.0564 42.4923C29.8464 42.9097 29.6508 43.3376 29.4881 43.7825L21.2534 45.2354C20.7468 40.6456 16.8487 37.0625 12.125 37.0625C7.05875 37.0625 2.9375 41.2139 2.9375 46.3156C2.9375 46.5676 2.843 46.7947 2.66581 46.9719C1.14856 48.4891 0.3125 50.5064 0.3125 52.6537C0.3125 56.6043 3.18163 59.8895 6.94325 60.5563C6.89862 61.0616 6.875 61.5734 6.875 62.0893V72.0223C6.875 77.3523 11.2102 81.6875 16.5403 81.6875H75.125V62.924C78.9851 61.7808 81.6875 58.2476 81.6875 54.125V51.5C81.6875 44.9874 76.3876 39.6875 69.875 39.6875ZM44.066 58.1649L44.9139 65.7944L44.8824 65.8889C44.3495 67.4876 42.8585 68.5625 41.1706 68.5625C39.8594 68.5625 38.6427 67.9115 37.9156 66.8195C37.5822 66.3194 37.1504 65.9047 36.6701 65.5608L44.066 58.1649ZM47.174 62.3609L46.4429 55.7879L47.132 55.0989C48.2555 53.9754 48.875 52.4804 48.875 50.891C48.875 47.6084 46.2041 44.9375 42.9215 44.9375C41.3321 44.9375 39.8358 45.557 38.7123 46.6818L37.8316 47.5625H37.6059C36.0584 47.5625 34.6029 48.1649 33.5096 49.2596C32.4149 50.3529 31.8125 51.8084 31.8125 53.3559V53.5816L29.891 55.5031L31.508 46.3393C32.3231 41.7245 36.3144 38.375 41 38.375C45.6856 38.375 49.6769 41.7245 50.4907 46.3379L52.7954 59.3934C52.8073 59.4577 52.8125 59.522 52.8125 59.5863C52.8125 60.194 52.319 60.6875 51.7113 60.6875C50.0024 60.6875 48.4169 61.3149 47.174 62.3609ZM56.75 31.8125H56.6607C56.7198 31.2035 56.75 30.5893 56.75 29.9711V26.5625C58.1977 26.5625 59.375 27.7398 59.375 29.1875C59.375 30.6352 58.1977 31.8125 56.75 31.8125ZM61.2689 14.015C61.8806 13.6409 62.5841 13.4375 63.3125 13.4375H64.4662C64.5515 13.4375 64.625 13.511 64.5791 13.7092C62.9161 15.3721 62 17.5824 62 19.9344C62 20.0459 61.958 20.1418 61.9331 20.2441C61.9541 19.8806 62 19.5183 62 19.1548C62 17.3711 61.7349 15.6517 61.2689 14.015ZM63.3125 8.1875H64.4662C67.4482 8.1875 69.875 10.6143 69.875 13.5963C69.875 15.0414 69.3119 16.3998 68.2895 17.4223C67.6188 18.0929 67.25 18.9854 67.25 19.9344C67.25 23.3981 64.5961 26.2186 61.2387 26.5061C61.1285 26.321 61.0064 26.1464 60.8739 25.9771L61.4028 23.8627C63.2324 23.5201 64.625 21.8926 64.625 19.9344C64.625 18.2846 65.2681 16.7332 66.4362 15.5638C66.9613 15.0387 67.25 14.3392 67.25 13.5963C67.25 12.062 66.0005 10.8125 64.4662 10.8125H63.3125C62.2783 10.8125 61.2834 11.0802 60.3778 11.537C60.0181 10.7272 59.5968 9.9515 59.1309 9.206C60.4198 8.54319 61.8412 8.1875 63.3125 8.1875ZM16.0625 21.3125H14.9088C11.9268 21.3125 9.5 18.8857 9.5 15.9037C9.5 14.4586 10.0631 13.1002 11.0855 12.0777C11.7562 11.4071 12.125 10.5146 12.125 9.56563C12.125 5.91163 15.0689 2.9375 18.6875 2.9375C21.2902 2.9375 23.5949 4.46919 24.6502 6.80019C23.8916 7.67037 23.2156 8.61013 22.625 9.60894V9.5C22.625 7.32912 20.8584 5.5625 18.6875 5.5625C16.5166 5.5625 14.75 7.358 14.75 9.56563C14.75 11.2154 14.1069 12.7668 12.9388 13.9362C12.4137 14.4613 12.125 15.1608 12.125 15.9037C12.125 17.438 13.3745 18.6875 14.9088 18.6875H16.0625C17.5903 18.6875 18.9789 18.1415 20.0958 17.2621C20.0341 17.8842 20 18.5156 20 19.1548C20 19.5603 20.0486 19.9633 20.0748 20.3675C18.8279 20.9765 17.4603 21.3125 16.0625 21.3125ZM20 9.5V12.125C20 14.2959 18.2334 16.0625 16.0625 16.0625H14.9088C14.8235 16.0625 14.75 15.989 14.7959 15.7908C16.4589 14.1279 17.375 11.9176 17.375 9.56563C17.375 8.79256 17.9512 8.1875 18.6875 8.1875C19.4107 8.1875 20 8.77681 20 9.5ZM25.25 31.8125C23.8023 31.8125 22.625 30.6352 22.625 29.1875C22.625 27.7398 23.8023 26.5625 25.25 26.5625V29.9711C25.25 30.5906 25.2802 31.2048 25.3393 31.8125H25.25ZM25.4626 23.9375H25.25C24.6003 23.9375 23.9847 24.0714 23.4099 24.2879L23.1093 23.087C22.7878 21.8034 22.625 20.4804 22.625 19.1548C22.625 10.2127 29.9002 2.9375 38.8423 2.9375H43.1578C52.0998 2.9375 59.375 10.2127 59.375 19.1548C59.375 20.4804 59.2122 21.8034 58.8907 23.0883L58.5901 24.2892C58.0153 24.0714 57.3997 23.9375 56.75 23.9375H56.3904C55.8509 22.1459 54.7182 20.5683 53.117 19.5012C52.4135 19.0327 51.6444 18.677 50.8333 18.4447L44.6173 16.6689C44.8063 16.0573 44.9375 15.422 44.9375 14.75V8.1875H42.3125V14.75C42.3125 16.9209 40.5459 18.6875 38.375 18.6875H32.2102C30.8321 18.6875 29.4972 19.0917 28.3501 19.8569C26.8946 20.8269 25.88 22.2851 25.4626 23.9375ZM27.875 29.9711V25.6477C27.875 24.1947 28.5969 22.8468 29.8057 22.0409C30.5197 21.5645 31.3518 21.3125 32.2102 21.3125H38.375C40.3529 21.3125 42.1077 20.4148 43.3126 19.0261L50.1127 20.9686C50.6626 21.1261 51.1837 21.3663 51.6614 21.6853C53.2036 22.7129 54.125 24.4336 54.125 26.2895V29.9711C54.125 33.7511 52.8348 37.3342 50.4658 40.2178C48.2004 37.4667 44.78 35.75 41 35.75C37.22 35.75 33.7996 37.4668 31.5343 40.2164C29.1652 37.3342 27.875 33.7511 27.875 29.9711ZM28.8016 46.5702L26.6544 58.7397L20 65.3941V60.6875H17.375V65.9375H9.5V62.0893C9.5 55.07 14.5164 49.0916 21.428 47.8709L28.8016 46.5702ZM9.5 52.8125H8.34631C8.261 52.8125 8.1875 52.739 8.23344 52.5408C9.89637 50.8779 10.8125 48.6676 10.8125 46.3156C10.8125 45.5426 11.3887 44.9375 12.125 44.9375C12.8482 44.9375 13.4375 45.5268 13.4375 46.25V48.6506C11.9452 49.8161 10.6616 51.2178 9.63387 52.8007C9.58925 52.8033 9.54594 52.8125 9.5 52.8125ZM2.9375 52.6537C2.9375 51.2086 3.50056 49.8502 4.523 48.8278C5.19369 48.1571 5.5625 47.2646 5.5625 46.3156C5.5625 42.6616 8.50644 39.6875 12.125 39.6875C15.6176 39.6875 18.4552 42.4372 18.6507 45.8812C17.7504 46.1739 16.8867 46.5361 16.0625 46.964V46.25C16.0625 44.0791 14.2959 42.3125 12.125 42.3125C9.95413 42.3125 8.1875 44.108 8.1875 46.3156C8.1875 47.9654 7.54437 49.5168 6.37625 50.6863C5.85125 51.2113 5.5625 51.9108 5.5625 52.6537C5.5625 54.1513 6.75556 55.3693 8.24 55.427C7.8935 56.2447 7.60738 57.0912 7.3895 57.9667C4.86294 57.5112 2.9375 55.3089 2.9375 52.6537ZM9.5 72.0223V68.5625H16.8316L13.8221 71.5721L15.6779 73.4279L34.4375 54.6684V53.3559C34.4375 52.5224 34.7761 51.7048 35.3654 51.1154C35.9548 50.5261 36.7724 50.1875 37.6059 50.1875H38.9184L40.5682 48.5377C41.1969 47.909 42.0329 47.5625 42.9215 47.5625C44.7564 47.5625 46.25 49.0561 46.25 50.891C46.25 51.7796 45.9035 52.6156 45.2748 53.2443L21.5186 77.0006C20.189 78.3301 18.4211 79.0625 16.5403 79.0625C12.6579 79.0625 9.5 75.9046 9.5 72.0223ZM23.3744 78.8564L34.7643 67.4666C35.1515 67.6438 35.4914 67.9168 35.7316 68.2764C36.947 70.0994 38.9801 71.1875 41.1706 71.1875C43.9899 71.1875 46.4823 69.3907 47.3722 66.7184L47.4956 66.3509C48.1019 64.5331 49.7951 63.3125 51.7113 63.3125C53.7667 63.3125 55.4375 61.6417 55.4375 59.5863C55.4375 59.3684 55.4191 59.1519 55.3811 58.9379L53.1984 46.5689L60.572 47.8696C67.4836 49.0916 72.5 55.07 72.5 62.0893V65.9375H64.625V60.6875H62V79.0625H23.1474C23.2222 78.9929 23.3009 78.9299 23.3744 78.8564ZM73.8125 54.125C73.8125 54.4151 73.7049 54.6802 73.5395 54.9007C72.7192 53.1314 71.6022 51.5236 70.2464 50.1416C69.8238 49.2937 69.2831 48.5022 68.5625 47.7213C68.5625 47.636 68.636 47.5625 68.7213 47.5625H69.875C72.0459 47.5625 73.8125 49.3291 73.8125 51.5V54.125ZM64.625 79.0625V68.5625H72.5V79.0625H64.625ZM79.0625 54.125C79.0625 56.8366 77.4179 59.1794 75.0056 60.173C74.9032 59.2621 74.7391 58.3683 74.4989 57.5034C75.6618 56.8104 76.4375 55.5438 76.4375 54.125V51.5C76.4375 47.8814 73.4936 44.9375 69.875 44.9375H68.7213C67.4311 44.9375 66.3522 45.8247 66.0386 47.0178C65.2642 46.6083 64.4557 46.2553 63.6118 45.9652C64.3494 43.8245 66.3811 42.3125 68.7213 42.3125H69.875C74.9413 42.3125 79.0625 46.4338 79.0625 51.5V54.125Z" fill="#00BC8E"/>
<path d="M73.8125 29.1875C73.8125 27.7398 74.9898 26.5625 76.4375 26.5625C77.8852 26.5625 79.0625 27.7398 79.0625 29.1875C79.0625 30.6352 77.8852 31.8125 76.4375 31.8125V34.4375C79.3329 34.4375 81.6875 32.0829 81.6875 29.1875C81.6875 26.2921 79.3329 23.9375 76.4375 23.9375C73.5421 23.9375 71.1875 26.2921 71.1875 29.1875H73.8125Z" fill="#00BC8E"/>
<path d="M4.25 31.8125C6.42088 31.8125 8.1875 30.0459 8.1875 27.875C8.1875 25.7041 6.42088 23.9375 4.25 23.9375C2.07912 23.9375 0.3125 25.7041 0.3125 27.875C0.3125 30.0459 2.07912 31.8125 4.25 31.8125ZM4.25 26.5625C4.97319 26.5625 5.5625 27.1518 5.5625 27.875C5.5625 28.5982 4.97319 29.1875 4.25 29.1875C3.52681 29.1875 2.9375 28.5982 2.9375 27.875C2.9375 27.1518 3.52681 26.5625 4.25 26.5625Z" fill="#00BC8E"/>
</svg>
